<?xml version="1.0" encoding="UTF-8"?>
<svg version="1.1" xmlns="http://www.w3.org/2000/svg" width="500" height="500">
<path d="M0 0 C11.00064148 0.59407561 22.01613199 0.79022664 33.02905273 1.03393555 C40.3841825 1.20414316 47.71848437 1.43495376 55.05957031 1.93066406 C62.2555434 2.41411907 69.43960089 2.64648753 76.64904785 2.81436157 C131.08904856 4.14373312 131.08904856 4.14373312 147.87988281 16.42675781 C147.87988281 17.08675781 147.87988281 17.74675781 147.87988281 18.42675781 C148.47800781 18.69488281 149.07613281 18.96300781 149.69238281 19.23925781 C151.87836135 20.42593188 153.29320875 21.52274894 154.87988281 23.42675781 C154.87988281 24.08675781 154.87988281 24.74675781 154.87988281 25.42675781 C155.53988281 25.42675781 156.19988281 25.42675781 156.87988281 25.42675781 C164.75810631 35.99926554 169.9827961 48.1712758 170.02032471 61.48327637 C170.02603485 62.6998291 170.031745 63.91638184 170.03762817 65.1697998 C170.03887339 66.51000966 170.03999852 67.85021964 170.04101562 69.19042969 C170.04564751 70.60848112 170.05067266 72.02653132 170.05606079 73.44458008 C170.0691562 77.29214114 170.07562484 81.13968477 170.08007145 84.98726463 C170.08300843 87.39601752 170.08711454 89.80476572 170.09157562 92.21351624 C170.10524664 99.76391435 170.1149137 107.31430165 170.11877751 114.86471128 C170.12324929 123.55361765 170.14075776 132.242366 170.16977811 140.93122435 C170.19147539 147.66353531 170.20148616 154.39580209 170.20281863 161.1281476 C170.20386146 165.14098985 170.20965621 169.1536835 170.22763824 173.16648865 C170.24425741 176.94880857 170.24620825 180.73087043 170.23749924 184.51321411 C170.23637572 186.54199113 170.24998795 188.57076012 170.26425171 190.5994873 C170.21649479 201.2251852 168.91297631 211.59037448 163.81738281 221.05175781 C163.05748047 222.49421875 163.05748047 222.49421875 162.28222656 223.96582031 C161.22038607 225.82921728 160.06955031 227.64225656 158.87988281 229.42675781 C158.21988281 229.42675781 157.55988281 229.42675781 156.87988281 229.42675781 C156.57050781 230.04550781 156.26113281 230.66425781 155.94238281 231.30175781 C155.25488281 232.67675781 154.56738281 234.05175781 153.87988281 235.42675781 C153.21988281 235.42675781 152.55988281 235.42675781 151.87988281 235.42675781 C151.87988281 236.08675781 151.87988281 236.74675781 151.87988281 237.42675781 C151.21988281 237.42675781 150.55988281 237.42675781 149.87988281 237.42675781 C149.87988281 238.08675781 149.87988281 238.74675781 149.87988281 239.42675781 C147.63767287 241.02141994 145.42595982 242.46013431 143.06738281 243.86425781 C142.38538818 244.27095703 141.70339355 244.67765625 141.00073242 245.09667969 C130.49364627 251.15917105 119.43078753 252.3719405 107.50488281 252.89160156 C106.69119232 252.92915558 105.87750183 252.96670959 105.03915405 253.00540161 C102.31955981 253.12902963 99.59975882 253.24700198 96.87988281 253.36425781 C95.93123352 253.40622284 94.98258423 253.44818787 94.00518799 253.49142456 C73.0283631 254.41470563 52.04226596 255.06031111 31.05438614 255.67030907 C17.94675558 256.05161473 4.85392518 256.47858551 -8.23876953 257.21508789 C-34.14055269 258.62764582 -58.35438342 256.47475537 -79.12011719 239.42675781 C-79.12011719 238.76675781 -79.12011719 238.10675781 -79.12011719 237.42675781 C-79.78011719 237.42675781 -80.44011719 237.42675781 -81.12011719 237.42675781 C-86.93240338 230.87527843 -92.44758161 223.84850406 -95.12011719 215.42675781 C-95.4771875 214.32589844 -95.83425781 213.22503906 -96.20214844 212.09082031 C-98.45071926 204.55311851 -99.44169608 197.21109661 -99.72509766 189.36083984 C-99.76354231 188.40866137 -99.80198696 187.45648289 -99.8415966 186.47545052 C-100.24662955 175.54152835 -100.26501374 164.60890711 -100.25292969 153.66894531 C-100.25360629 151.46143585 -100.25457926 149.25392645 -100.25582886 147.04641724 C-100.25728848 142.45981118 -100.25520754 137.87322483 -100.25048828 133.28662109 C-100.24478529 127.46671928 -100.24808482 121.64686356 -100.25406075 115.82696342 C-100.25770793 111.28137883 -100.25650898 106.73580482 -100.25393295 102.19021988 C-100.25327548 100.04644897 -100.25404976 97.90267703 -100.25641251 95.75890732 C-100.26540478 85.31567028 -100.18847571 74.88844568 -99.71337891 64.45458984 C-99.67989412 63.65744505 -99.64640934 62.86030025 -99.61190987 62.03899956 C-98.94274244 49.17524486 -94.68730722 38.36592548 -88.12011719 27.42675781 C-87.46011719 27.42675781 -86.80011719 27.42675781 -86.12011719 27.42675781 C-85.77980469 26.62238281 -85.77980469 26.62238281 -85.43261719 25.80175781 C-82.28535551 20.10671287 -78.15990936 16.33076831 -72.68261719 12.92675781 C-71.76899414 12.35320557 -71.76899414 12.35320557 -70.83691406 11.76806641 C-48.1962422 -2.07113153 -25.59490673 -1.4282184 0 0 Z " fill="#3A8963" transform="translate(220.1201171875,119.5732421875)"/>
<path d="M0 0 C2.19970994 1.08104331 4.37110822 2.2229226 6.5 3.4375 C7.46292969 3.94410156 8.42585938 4.45070312 9.41796875 4.97265625 C14.9075555 8.1239423 19.44409713 12.02704171 23.9375 16.4375 C24.43403076 16.9236377 24.93056152 17.40977539 25.44213867 17.91064453 C28.90059966 21.45478412 31.16358301 25.07221984 33.5 29.4375 C34.03367187 30.27539062 34.56734375 31.11328125 35.1171875 31.9765625 C36.73257683 34.85140792 37.6730814 37.65692733 38.625 40.8125 C38.95757812 41.89273438 39.29015625 42.97296875 39.6328125 44.0859375 C43.87250197 60.47176438 42.77014628 78.4008704 34.5859375 93.28125 C33.5483422 95.34151116 32.96058639 97.18574432 32.5 99.4375 C31.84 99.4375 31.18 99.4375 30.5 99.4375 C30.2525 99.994375 30.005 100.55125 29.75 101.125 C26.81916133 106.54705154 22.48885533 110.86174409 17.5 114.4375 C16.84 114.4375 16.18 114.4375 15.5 114.4375 C15.5 115.0975 15.5 115.7575 15.5 116.4375 C13.35799177 117.54963798 11.21181908 118.65214637 9.0625 119.75 C8.47017578 120.05873047 7.87785156 120.36746094 7.26757812 120.68554688 C-1.68491602 125.2336054 -9.30225174 126.92710776 -19.375 126.8125 C-20.38691406 126.82410156 -21.39882813 126.83570313 -22.44140625 126.84765625 C-30.83090231 126.81543027 -38.6179261 125.48660629 -46.125 121.625 C-49.58136652 120.40887104 -50.2830988 120.37616267 -53.62890625 121.20703125 C-54.42135742 121.40079346 -55.21380859 121.59455566 -56.03027344 121.79418945 C-57.25278809 122.11262817 -57.25278809 122.11262817 -58.5 122.4375 C-59.27633789 122.63754639 -60.05267578 122.83759277 -60.85253906 123.04370117 C-63.17789259 123.65680668 -65.49556524 124.29336481 -67.8125 124.9375 C-68.59689453 125.15019531 -69.38128906 125.36289062 -70.18945312 125.58203125 C-70.94806641 125.79214844 -71.70667969 126.00226563 -72.48828125 126.21875 C-73.16415283 126.40501953 -73.84002441 126.59128906 -74.53637695 126.78320312 C-76.5620948 127.40057175 -76.5620948 127.40057175 -78.56323242 128.51367188 C-80.5 129.4375 -80.5 129.4375 -83.5 129.4375 C-81.89385446 121.79661343 -79.78838949 114.37469398 -77.53515625 106.90234375 C-77.27347656 106.01160156 -77.01179687 105.12085938 -76.7421875 104.203125 C-76.5035498 103.40680664 -76.26491211 102.61048828 -76.01904297 101.79003906 C-74.85584808 96.51791018 -75.70422921 93.53942586 -78.3125 88.875 C-85.4420364 75.00358521 -87.30711938 57.50982223 -82.5 42.4375 C-78.66067177 31.24945758 -72.54955267 22.04864937 -64.5 13.4375 C-63.84 13.4375 -63.18 13.4375 -62.5 13.4375 C-62.5 12.7775 -62.5 12.1175 -62.5 11.4375 C-60.36277305 9.85559185 -58.24539786 8.41322128 -56 7 C-55.3594165 6.59257568 -54.71883301 6.18515137 -54.05883789 5.76538086 C-49.65572256 3.02102295 -45.47373701 0.9748369 -40.5 -0.5625 C-39.7251123 -0.90603516 -38.95022461 -1.24957031 -38.15185547 -1.60351562 C-27.57508391 -5.42836912 -10.33899796 -4.40403564 0 0 Z " fill="#328059" transform="translate(290.5,163.5625)"/>
<path d="M0 0 C2.19970994 1.08104331 4.37110822 2.2229226 6.5 3.4375 C7.46292969 3.94410156 8.42585938 4.45070312 9.41796875 4.97265625 C14.9075555 8.1239423 19.44409713 12.02704171 23.9375 16.4375 C24.43403076 16.9236377 24.93056152 17.40977539 25.44213867 17.91064453 C28.90059966 21.45478412 31.16358301 25.07221984 33.5 29.4375 C34.03367187 30.27539062 34.56734375 31.11328125 35.1171875 31.9765625 C36.73257683 34.85140792 37.6730814 37.65692733 38.625 40.8125 C38.95757812 41.89273438 39.29015625 42.97296875 39.6328125 44.0859375 C43.87250197 60.47176438 42.77014628 78.4008704 34.5859375 93.28125 C33.5483422 95.34151116 32.96058639 97.18574432 32.5 99.4375 C31.84 99.4375 31.18 99.4375 30.5 99.4375 C30.2525 99.994375 30.005 100.55125 29.75 101.125 C26.81916133 106.54705154 22.48885533 110.86174409 17.5 114.4375 C16.84 114.4375 16.18 114.4375 15.5 114.4375 C15.5 115.0975 15.5 115.7575 15.5 116.4375 C13.35799177 117.54963798 11.21181908 118.65214637 9.0625 119.75 C8.47017578 120.05873047 7.87785156 120.36746094 7.26757812 120.68554688 C-1.68491602 125.2336054 -9.30225174 126.92710776 -19.375 126.8125 C-20.38691406 126.82410156 -21.39882813 126.83570313 -22.44140625 126.84765625 C-30.83090231 126.81543027 -38.6179261 125.48660629 -46.125 121.625 C-49.58136652 120.40887104 -50.2830988 120.37616267 -53.62890625 121.20703125 C-54.42135742 121.40079346 -55.21380859 121.59455566 -56.03027344 121.79418945 C-57.25278809 122.11262817 -57.25278809 122.11262817 -58.5 122.4375 C-59.27633789 122.63754639 -60.05267578 122.83759277 -60.85253906 123.04370117 C-63.17789259 123.65680668 -65.49556524 124.29336481 -67.8125 124.9375 C-68.59689453 125.15019531 -69.38128906 125.36289062 -70.18945312 125.58203125 C-70.94806641 125.79214844 -71.70667969 126.00226563 -72.48828125 126.21875 C-73.16415283 126.40501953 -73.84002441 126.59128906 -74.53637695 126.78320312 C-76.5620948 127.40057175 -76.5620948 127.40057175 -78.56323242 128.51367188 C-80.5 129.4375 -80.5 129.4375 -83.5 129.4375 C-81.89385446 121.79661343 -79.78838949 114.37469398 -77.53515625 106.90234375 C-77.27347656 106.01160156 -77.01179687 105.12085938 -76.7421875 104.203125 C-76.5035498 103.40680664 -76.26491211 102.61048828 -76.01904297 101.79003906 C-74.85584808 96.51791018 -75.70422921 93.53942586 -78.3125 88.875 C-85.4420364 75.00358521 -87.30711938 57.50982223 -82.5 42.4375 C-78.66067177 31.24945758 -72.54955267 22.04864937 -64.5 13.4375 C-63.84 13.4375 -63.18 13.4375 -62.5 13.4375 C-62.5 12.7775 -62.5 12.1175 -62.5 11.4375 C-60.36277305 9.85559185 -58.24539786 8.41322128 -56 7 C-55.3594165 6.59257568 -54.71883301 6.18515137 -54.05883789 5.76538086 C-49.65572256 3.02102295 -45.47373701 0.9748369 -40.5 -0.5625 C-39.7251123 -0.90603516 -38.95022461 -1.24957031 -38.15185547 -1.60351562 C-27.57508391 -5.42836912 -10.33899796 -4.40403564 0 0 Z M-62.55078125 29.203125 C-71.85844118 43.30914378 -73.31191644 57.59420995 -70.96875 74.203125 C-69.90863639 78.69708487 -68.50236487 82.62728792 -66.3125 86.6875 C-62.25717347 94.28541062 -65.12178343 103.36508865 -66.5 111.4375 C-65.22125 111.128125 -63.9425 110.81875 -62.625 110.5 C-60.91844586 110.13735724 -59.20999196 109.7835698 -57.5 109.4375 C-56.695625 109.2621875 -55.89125 109.086875 -55.0625 108.90625 C-48.77322544 107.85803757 -44.83498339 109.14932215 -39.23828125 112.11328125 C-33.27247095 114.99831647 -27.70392874 115.80154237 -21.1875 115.75 C-20.43839355 115.74436035 -19.68928711 115.7387207 -18.91748047 115.73291016 C-5.67201226 115.44353263 5.82513533 109.67404529 15.43359375 100.6328125 C21.5895368 94.09285032 25.71476549 86.95160548 28.5 78.4375 C28.85707031 77.34953125 29.21414063 76.2615625 29.58203125 75.140625 C33.10700001 60.92075103 30.12008173 45.65183996 22.6484375 33.20703125 C21.61135304 31.60907459 20.55670164 30.02255246 19.5 28.4375 C18.84 28.4375 18.18 28.4375 17.5 28.4375 C17.2628125 27.85871094 17.025625 27.27992188 16.78125 26.68359375 C12.54844168 19.26327428 3.13294245 14.63099732 -4.5 11.4375 C-5.22058594 11.1178125 -5.94117188 10.798125 -6.68359375 10.46875 C-27.6451911 2.62177422 -49.60559589 11.74561789 -62.55078125 29.203125 Z " fill="#D9DFDC" transform="translate(290.5,163.5625)"/>
<path d="M0 0 C0.66 0 1.32 0 2 0 C2 0.66 2 1.32 2 2 C1.34 2 0.68 2 0 2 C0.04125 2.94875 0.0825 3.8975 0.125 4.875 C0 8 0 8 -2 10 C-2.639375 10.70125 -3.27875 11.4025 -3.9375 12.125 C-6 14 -6 14 -9 14 C-9.2475 14.763125 -9.495 15.52625 -9.75 16.3125 C-11.11739606 20.34631837 -12.59911654 24.32972514 -14.09765625 28.31640625 C-15.68649756 33.04166159 -16.12616811 37.33917417 -16.13371277 42.31794739 C-16.13797775 43.59221085 -16.14224274 44.8664743 -16.14663696 46.17935181 C-16.14628748 47.58416751 -16.14582596 48.98898319 -16.14526367 50.39379883 C-16.14825716 51.87907495 -16.15166013 53.3643503 -16.15544128 54.84962463 C-16.16426673 58.878667 -16.1666188 62.90768811 -16.16725707 66.93673921 C-16.16796846 69.4560094 -16.17010448 71.97527422 -16.17275429 74.49454308 C-16.18200327 83.28941566 -16.18608978 92.0842731 -16.18530273 100.87915039 C-16.18470223 109.06737978 -16.19524981 117.25554322 -16.2110464 125.44375592 C-16.22413838 132.4817186 -16.22948593 139.51965978 -16.22884732 146.55763453 C-16.2285928 150.75751514 -16.23141868 154.95733714 -16.24202538 159.15720558 C-16.25173414 163.10936913 -16.25176655 167.06141838 -16.24450874 171.01358604 C-16.24346631 172.45992068 -16.24580542 173.90626254 -16.2518692 175.35258484 C-16.28010861 182.557821 -16.20714005 189.10588908 -14 196 C-14.07087043 195.41909418 -14.14174086 194.83818836 -14.21475887 194.23967934 C-14.97922989 187.422827 -15.13621654 180.70413625 -15.11352539 173.84912109 C-15.11367142 172.67723236 -15.11381744 171.50534363 -15.1139679 170.29794312 C-15.11327584 166.45642187 -15.10551676 162.61495019 -15.09765625 158.7734375 C-15.09578956 156.09729938 -15.09431759 153.42116394 -15.09336853 150.74502563 C-15.09027315 144.44130807 -15.08208417 138.13760806 -15.07201904 131.83389819 C-15.06080191 124.65121773 -15.0553334 117.46853638 -15.05032361 110.28584933 C-15.03989987 95.52389062 -15.0223355 80.76194562 -15 66 C-12.86405211 69.20392184 -12.74991613 70.01013959 -12.7484436 73.68814087 C-12.74306076 74.65215317 -12.73767792 75.61616547 -12.73213196 76.60939026 C-12.73831795 78.19420448 -12.73831795 78.19420448 -12.74462891 79.81103516 C-12.74100845 80.92533401 -12.737388 82.03963287 -12.73365784 83.18769836 C-12.7267536 85.61362513 -12.72426031 88.03956747 -12.72560501 90.46550369 C-12.72656982 94.31828525 -12.71362863 98.17078742 -12.69662476 102.02352905 C-12.65036864 112.98050777 -12.62570963 123.9374585 -12.61914062 134.89453125 C-12.61495337 141.59602724 -12.5896689 148.29719601 -12.55381393 154.99860764 C-12.54407945 157.54117476 -12.54164887 160.08378169 -12.54698563 162.62636185 C-12.94759232 187.99510591 -12.94759232 187.99510591 -3.26953125 210.921875 C-1.83061098 213.2772768 -1.39385332 215.28573378 -1 218 C-3.49409061 219.57035335 -4.70443416 220.0274945 -7.6875 219.75 C-8.450625 219.5025 -9.21375 219.255 -10 219 C-10.495 218.01 -10.495 218.01 -11 217 C-13.74146387 215.02499915 -13.74146387 215.02499915 -16 214.1953125 C-22.17584663 210.50427916 -24.47270987 200.12782185 -26.3125 193.625 C-27.79159104 187.40881241 -28.35990762 181.32041404 -28.59716797 174.94580078 C-28.63617659 173.99277636 -28.6751852 173.03975193 -28.7153759 172.05784798 C-29.12642662 161.12075271 -29.14490027 150.18551056 -29.1328125 139.2421875 C-29.1334891 137.03467803 -29.13446207 134.82716864 -29.13571167 132.61965942 C-29.13717129 128.03305337 -29.13509035 123.44646702 -29.13037109 118.85986328 C-29.1246681 113.03996147 -29.12796763 107.22010575 -29.13394356 101.40020561 C-29.13759074 96.85462102 -29.1363918 92.30904701 -29.13381577 87.76346207 C-29.13315829 85.61969115 -29.13393257 83.47591922 -29.13629532 81.33214951 C-29.14528514 70.89175994 -29.06904046 60.46677891 -28.59716797 50.03564453 C-28.56420687 49.2395471 -28.53124577 48.44344967 -28.49728584 47.62322807 C-27.92239421 36.52074748 -25.31151193 23.70500008 -18 15 C-16.34517922 14.61211202 -14.67734084 14.27462081 -13 14 C-12.34 13.01 -11.68 12.02 -11 11 C-8.875 9.8125 -8.875 9.8125 -7 9 C-7 7.35 -7 5.7 -7 4 C-6.030625 3.525625 -5.06125 3.05125 -4.0625 2.5625 C-1.19522563 1.29806053 -1.19522563 1.29806053 0 0 Z M1 4 C1.33 4.66 1.66 5.32 2 6 C1.34 5.67 0.68 5.34 0 5 C0.33 4.67 0.66 4.34 1 4 Z " fill="#205846" transform="translate(149,134)"/>
<path d="M0 0 C1.625 1.875 1.625 1.875 3 5 C3.36351562 5.79792969 3.72703125 6.59585938 4.1015625 7.41796875 C7.48325766 15.2050695 7.48325766 15.2050695 6 19 C5.34 19.99 4.68 20.98 4 22 C3.34 22 2.68 22 2 22 C4.23794978 29.16143929 9.58661317 34.99261718 15 40 C15.47308594 40.45503906 15.94617188 40.91007812 16.43359375 41.37890625 C19.84725523 44.49110152 22.40177472 45.67155534 27 46 C27.66 45.01 28.32 44.02 29 43 C29.66 43 30.32 43 31 43 C31 42.34 31 41.68 31 41 C37.49142565 41.42335385 42.33492989 43.91099799 48 47 C48.4998202 53.12279743 47.45350289 56.10753758 44 61 C39.56734749 63.81482786 35.07929004 63.58466648 30 63 C18.36457254 59.873534 9.55897781 52.11094468 1 44 C0.40960938 43.45730469 -0.18078125 42.91460937 -0.7890625 42.35546875 C-2 41 -2 41 -2 39 C-2.66 39 -3.32 39 -4 39 C-10.1347869 31.71381614 -15.93598359 21.76271485 -15.375 12.015625 C-14.815707 9.00942511 -13.59143568 6.58608298 -12 4 C-11.34 4 -10.68 4 -10 4 C-10 3.34 -10 2.68 -10 2 C-6.60929907 -0.08658519 -3.95063669 -0.5883927 0 0 Z " fill="#D8DEDB" transform="translate(253,194)"/>
<path d="M0 0 C0 0.99 0 1.98 0 3 C1.010625 2.62875 2.02125 2.2575 3.0625 1.875 C7.81433172 0.49387818 11.64775545 1.82387772 16 4 C16.66 3.01 17.32 2.02 18 1 C20.6015625 0.70703125 20.6015625 0.70703125 23.625 0.8125 C25.12933594 0.85310547 25.12933594 0.85310547 26.6640625 0.89453125 C27.43492187 0.92933594 28.20578125 0.96414063 29 1 C29.495 1.99 29.495 1.99 30 3 C30.99 3 31.98 3 33 3 C32.67 4.98 32.34 6.96 32 9 C32.99 9 33.98 9 35 9 C35.33 7.02 35.66 5.04 36 3 C37.65 3 39.3 3 41 3 C41 9.27 41 15.54 41 22 C35 22 35 22 33.125 20.5 C32.75375 20.005 32.3825 19.51 32 19 C31.38125 19.7425 31.38125 19.7425 30.75 20.5 C29 22 29 22 25 22 C25 18.04 25 14.08 25 10 C21.75267068 11.62366466 21.29844864 14.75387839 20 18 C20.66 18.33 21.32 18.66 22 19 C19.75 21.5625 19.75 21.5625 17 24 C14.828125 23.65234375 14.828125 23.65234375 13 23 C12.51171875 21.01432292 12.0234375 19.02864583 11.53515625 17.04296875 C11.08989295 15.34316798 10.55566015 13.66698046 10 12 C9.01 15.3 8.02 18.6 7 22 C4.36 22 1.72 22 -1 22 C-5.85808581 10.00660066 -5.85808581 10.00660066 -5 4 C-2.74358974 0 -2.74358974 0 0 0 Z " fill="#6DA98C" transform="translate(197,314)"/>
<path d="M0 0 C1.98 0.99 1.98 0.99 4 2 C4 2.66 4 3.32 4 4 C4.55558594 4.26039063 5.11117187 4.52078125 5.68359375 4.7890625 C8.28183872 6.14733559 10.63207141 7.73562402 13.0625 9.375 C24.68424734 16.84278946 35.53659356 18.22922901 49.0625 18.25 C49.75629761 18.25233643 50.45009521 18.25467285 51.16491699 18.25708008 C64.30190147 18.27351532 77.2676267 17.29192834 90.33959961 16.07177734 C100.15339117 15.16608997 109.83814626 14.73243482 119.6953125 14.9921875 C122.88004185 15.24719858 122.88004185 15.24719858 125 14 C125 14.66 125 15.32 125 16 C126.80984375 15.7834375 126.80984375 15.7834375 128.65625 15.5625 C130.27080556 15.37476098 131.88539049 15.18727446 133.5 15 C134.29148437 14.90460938 135.08296875 14.80921875 135.8984375 14.7109375 C140.97029404 14.12892118 145.89493859 13.90632915 151 14 C151 14.66 151 15.32 151 16 C151.9075 15.814375 152.815 15.62875 153.75 15.4375 C156.68314324 15.04265379 158.2644657 15.05308428 161 16 C161 15.34 161 14.68 161 14 C166.61 14.66 172.22 15.32 178 16 C178 16.33 178 16.66 178 17 C176.95065781 17.02283554 175.90131561 17.04567108 174.82017517 17.06919861 C164.91828734 17.28523183 155.01650689 17.50570336 145.1148138 17.73049068 C140.02458674 17.84590664 134.93433495 17.95977321 129.84399414 18.07006836 C124.92911212 18.17661929 120.01433806 18.28728003 115.09961128 18.40075874 C113.22702851 18.44327933 111.35441182 18.48433333 109.48176384 18.5238781 C106.85354108 18.57963202 104.22548859 18.64065758 101.59741211 18.70288086 C100.82776627 18.71798706 100.05812042 18.73309326 99.26515198 18.74865723 C94.77159124 18.86150664 90.44959353 19.30499641 86 20 C83.8182702 20.13878184 81.63413765 20.24336694 79.44921875 20.31640625 C78.20470947 20.35838135 76.9602002 20.40035645 75.67797852 20.44360352 C74.36112061 20.48283936 73.0442627 20.5220752 71.6875 20.5625 C71.01290741 20.58367889 70.33831482 20.60485779 69.64328003 20.62667847 C56.09529248 21.04886051 42.55408453 21.1135183 29 21 C29 20.34 29 19.68 29 19 C28.40574219 18.86464844 27.81148437 18.72929687 27.19921875 18.58984375 C17.75480195 16.13693923 6.6950628 10.60630218 1.1875 2.25 C0.795625 1.5075 0.40375 0.765 0 0 Z " fill="#226A46" transform="translate(149,354)"/>
<path d="M0 0 C2.125 0.375 2.125 0.375 4 1 C-5.08123145 7.57606416 -17.53847108 7.99265131 -28.375 8.46484375 C-29.59553574 8.52117477 -29.59553574 8.52117477 -30.84072876 8.5786438 C-33.560323 8.70227182 -36.28012399 8.82024417 -39 8.9375 C-39.94864929 8.97946503 -40.89729858 9.02143005 -41.87469482 9.06466675 C-62.85152328 9.98794797 -83.83762538 10.6335836 -104.82551003 11.24354839 C-117.19329273 11.60335145 -129.55023148 11.97550233 -141.90362549 12.68089294 C-148.06499617 13.0259999 -154.20508173 13.15107008 -160.375 13.125 C-161.344375 13.12886719 -162.31375 13.13273437 -163.3125 13.13671875 C-167.70907275 13.13066286 -171.69338675 12.96393855 -176 12 C-176 11.67 -176 11.34 -176 11 C-175.32650009 10.97716446 -174.65300018 10.95432892 -173.95909119 10.93080139 C-166.93456087 10.69188588 -159.91022838 10.44768223 -152.88598633 10.20043945 C-150.26624151 10.10891928 -147.64644958 10.01873695 -145.02661133 9.92993164 C-141.2558895 9.80188019 -137.48536454 9.66898165 -133.71484375 9.53515625 C-132.54791489 9.49656998 -131.38098602 9.4579837 -130.17869568 9.41822815 C-129.07808304 9.37826218 -127.9774704 9.3382962 -126.84350586 9.29711914 C-125.88198105 9.26380997 -124.92045624 9.23050079 -123.92979431 9.19618225 C-120.91693706 9.03376702 -120.91693706 9.03376702 -117.6262207 8.5 C-113.78723251 7.97066264 -110.00440635 7.7869612 -106.13696289 7.70288086 C-105.38491577 7.68322769 -104.63286865 7.66357452 -103.85803223 7.64332581 C-101.39632074 7.57995082 -98.93451115 7.52235286 -96.47265625 7.46484375 C-94.75629286 7.42179041 -93.03993856 7.37837371 -91.32359314 7.33460999 C-86.82417047 7.2208535 -82.32464207 7.11201006 -77.82507324 7.00421143 C-73.22640662 6.89316148 -68.62785791 6.77743492 -64.02929688 6.66210938 C-55.01964014 6.43684554 -46.00986469 6.21677518 -37 6 C-37 5.67 -37 5.34 -37 5 C-36.33057373 4.98018066 -35.66114746 4.96036133 -34.97143555 4.93994141 C-31.87646029 4.84344834 -28.78204901 4.73428366 -25.6875 4.625 C-24.63498047 4.5940625 -23.58246094 4.563125 -22.49804688 4.53125 C-10.38641323 4.6864446 -10.38641323 4.6864446 0 0 Z " fill="#5E977D" transform="translate(356,364)"/>
<path d="M0 0 C1.21116353 3.82307141 0.43013253 6.3790464 -0.50335121 10.23907852 C-1.53416978 15.96950454 -1.2678265 21.8123622 -1.24291992 27.61669922 C-1.24399467 29.07799362 -1.24593621 30.5392876 -1.24867249 32.00057983 C-1.25349407 35.94698324 -1.24589796 39.89327246 -1.23571944 43.83966208 C-1.22688922 47.98515776 -1.22869738 52.13065039 -1.2290802 56.27615356 C-1.22814544 63.23799532 -1.21948857 70.19979332 -1.20581055 77.16162109 C-1.19009947 85.18739927 -1.18481217 93.21312955 -1.1855461 101.238922 C-1.18622407 109.81340509 -1.17926776 118.38786995 -1.1700995 126.96234751 C-1.16797787 129.41912182 -1.16725964 131.87589316 -1.16686058 134.3326683 C-1.16584847 138.20854285 -1.15968174 142.08437794 -1.14969444 145.96023941 C-1.14679876 147.37467456 -1.14553805 148.78911425 -1.14612198 150.20355225 C-1.14817074 158.19438722 -0.90109526 166.0567613 0 174 C-2 173 -2 173 -3.10783386 169.85542297 C-4.55971901 163.43116348 -4.2874101 156.86327578 -4.2746582 150.31323242 C-4.27901126 148.8323796 -4.28419638 147.35152903 -4.29014587 145.87068176 C-4.30348483 141.8663868 -4.30412014 137.86218652 -4.30158257 133.85787368 C-4.30050917 130.50579366 -4.30540578 127.1537325 -4.310188 123.80165654 C-4.32126602 115.88753193 -4.32173051 107.97345478 -4.31567383 100.05932617 C-4.30963796 91.91706494 -4.32193911 83.77497669 -4.3432439 75.63274497 C-4.36090631 68.62269216 -4.36685387 61.61269417 -4.36360615 54.60261995 C-4.36180018 50.42446168 -4.36436033 46.24642676 -4.37832069 42.0682888 C-4.39096984 38.13572094 -4.38888861 34.20342098 -4.37590981 30.27085686 C-4.37355963 28.83545589 -4.37622217 27.40003566 -4.38453293 25.96465683 C-4.43282496 16.96851869 -4.10028271 8.20056541 0 0 Z " fill="#6BB593" transform="translate(136,157)"/>
<path d="M0 0 C11.67039826 0.25270547 21.53373902 4.26439123 31 11 C31 11.66 31 12.32 31 13 C31.598125 13.268125 32.19625 13.53625 32.8125 13.8125 C34.99847854 14.99917406 36.41332594 16.09599113 38 18 C38 18.66 38 19.32 38 20 C38.66 20 39.32 20 40 20 C47.62152202 30.22801656 52.14823727 41.22355908 53 54 C52.67 54 52.34 54 52 54 C51.34 55.98 50.68 57.96 50 60 C49.67 60 49.34 60 49 60 C48.01 52.41 47.02 44.82 46 37 C45.34 37 44.68 37 44 37 C42.76078698 34.02588876 41.69941596 31.14737182 41 28 C40.34 28 39.68 28 39 28 C39 27.34 39 26.68 39 26 C38.34 26 37.68 26 37 26 C36.34 25.01 35.68 24.02 35 23 C31.89440826 19.55866861 29.44973091 17.39848686 25 16 C25.33 15.01 25.66 14.02 26 13 C25.278125 12.71125 24.55625 12.4225 23.8125 12.125 C22.884375 11.75375 21.95625 11.3825 21 11 C20.0925 10.67 19.185 10.34 18.25 10 C16 9 16 9 15 7 C12.47266765 6.34444881 12.47266765 6.34444881 10 6 C10 5.67 10 5.34 10 5 C8.906875 4.9175 7.81375 4.835 6.6875 4.75 C3 4 3 4 1.26953125 1.953125 C0.64111328 0.98632812 0.64111328 0.98632812 0 0 Z " fill="#9AD3BA" transform="translate(337,125)"/>
<path d="M0 0 C2.13594789 3.20392184 2.25008387 4.01013959 2.2515564 7.68814087 C2.25693924 8.65215317 2.26232208 9.61616547 2.26786804 10.60939026 C2.26374405 11.66593307 2.25962006 12.72247589 2.25537109 13.81103516 C2.25899155 14.92533401 2.262612 16.03963287 2.26634216 17.18769836 C2.2732464 19.61362513 2.27573969 22.03956747 2.27439499 24.46550369 C2.27343018 28.31828525 2.28637137 32.17078742 2.30337524 36.02352905 C2.34963136 46.98050777 2.37429037 57.9374585 2.38085938 68.89453125 C2.38504663 75.59602724 2.4103311 82.29719601 2.44618607 88.99860764 C2.45592055 91.54117476 2.45835113 94.08378169 2.45301437 96.62636185 C2.05240768 121.99510591 2.05240768 121.99510591 11.73046875 144.921875 C13.16938902 147.2772768 13.60614668 149.28573378 14 152 C10.09440939 150.73332196 7.93939313 149.68484694 6 146 C5.7664092 144.1646437 5.54172619 142.3273582 5.37890625 140.484375 C4.72607133 136.2039316 3.27572371 132.15893125 1.9375 128.05078125 C0.563387 123.57918852 -0.12515383 119.52190292 -0.12025452 114.84306335 C-0.12231651 113.31820564 -0.12231651 113.31820564 -0.12442017 111.76254272 C-0.12082489 110.65843048 -0.11722961 109.55431824 -0.11352539 108.41674805 C-0.11367142 107.24558945 -0.11381744 106.07443085 -0.1139679 104.86778259 C-0.11327157 100.99907576 -0.10549222 97.13041716 -0.09765625 93.26171875 C-0.09579108 90.57843443 -0.09431844 87.89515278 -0.09336853 85.21186829 C-0.0902633 78.87256835 -0.08206082 72.53328571 -0.07201904 66.19399339 C-0.06083279 58.97515383 -0.05534112 51.75631343 -0.05032361 44.53746736 C-0.03987753 29.69163556 -0.02229375 14.84581892 0 0 Z " fill="#186540" transform="translate(134,200)"/>
<path d="M0 0 C1.09803955 0.00717041 2.1960791 0.01434082 3.32739258 0.02172852 C10.64489874 0.0932558 17.93877439 0.35247062 25.24438477 0.76098633 C36.24536042 1.35389007 47.26096727 1.55096259 58.27416992 1.79467773 C66.90992317 1.99444418 75.49839618 2.36788216 84.11791992 2.94677734 C91.27856453 3.40280741 98.45352021 3.55447223 105.625 3.75 C107.14193415 3.79337347 108.6588613 3.83699231 110.17578125 3.88085938 C113.82544509 3.98588366 117.47519047 4.08765036 121.125 4.1875 C121.125 4.5175 121.125 4.8475 121.125 5.1875 C109.52520064 6.65108423 97.90804881 6.14465664 86.25 5.875 C85.16196075 5.85204865 84.07392151 5.82909729 82.95291138 5.80545044 C66.81126725 5.46426933 50.68975403 4.87792725 34.5625 4.125 C16.44516152 3.27676112 16.44516152 3.27676112 -1.6875 2.9375 C-2.62859619 2.928396 -3.56969238 2.91929199 -4.53930664 2.90991211 C-13.2850784 2.95007168 -20.59653138 4.81853493 -28.515625 8.48046875 C-31.33275779 9.32467576 -33.0740214 8.96720504 -35.875 8.1875 C-33.60421073 5.91671073 -31.9374652 5.28935235 -28.9375 4.1875 C-28.06222656 3.8575 -27.18695313 3.5275 -26.28515625 3.1875 C-17.52956184 0.61999465 -9.09272312 -0.11562502 0 0 Z " fill="#9BCEB7" transform="translate(194.875,118.8125)"/>
<path d="M0 0 C2.49361571 1.20381448 4.68143083 2.45428722 7 4 C7 4.66 7 5.32 7 6 C9.41645782 6.16687448 9.41645782 6.16687448 12 6 C12.66 5.34 13.32 4.68 14 4 C14.66 4.33 15.32 4.66 16 5 C16.33 4.34 16.66 3.68 17 3 C19 6.75 19 6.75 19 9 C19.64544173 12.06733863 19.64544173 12.06733863 21.78125 12.98046875 C22.5134375 13.31691406 23.245625 13.65335937 24 14 C25.51211456 15.08751717 27.01113228 16.19336777 28.5 17.3125 C33.96598127 21.21211052 39.73301537 23.66334078 46 26 C46 26.66 46 27.32 46 28 C32.25283993 27.51764351 19.37346552 20.74659824 9 12 C9 11.34 9 10.68 9 10 C8.34 10 7.68 10 7 10 C5.2734375 8.06640625 5.2734375 8.06640625 3.375 5.5625 C2.74335938 4.73878906 2.11171875 3.91507812 1.4609375 3.06640625 C0 1 0 1 0 0 Z " fill="#265C4B" transform="translate(132,347)"/>
<path d="M0 0 C1.32 0 2.64 0 4 0 C4.20496094 0.71027344 4.40992188 1.42054688 4.62109375 2.15234375 C4.89050781 3.07144531 5.15992188 3.99054688 5.4375 4.9375 C5.83775391 6.31228516 5.83775391 6.31228516 6.24609375 7.71484375 C6.79026051 9.9402493 6.79026051 9.9402493 8 11 C8.17015625 10.28972656 8.3403125 9.57945312 8.515625 8.84765625 C8.75796875 7.92855469 9.0003125 7.00945312 9.25 6.0625 C9.48203125 5.14597656 9.7140625 4.22945313 9.953125 3.28515625 C11 1 11 1 13.109375 0.18359375 C13.73328125 0.12300781 14.3571875 0.06242187 15 0 C18 6.5 18 6.5 18 11 C18.66 11 19.32 11 20 11 C20.144375 9.9275 20.28875 8.855 20.4375 7.75 C20.83749442 5.08337051 21.27591924 2.58600271 22 0 C23.32 0 24.64 0 26 0 C25.35702496 2.62573061 24.71075589 5.25057303 24.0625 7.875 C23.88009766 8.62136719 23.69769531 9.36773437 23.50976562 10.13671875 C22.11328125 15.7734375 22.11328125 15.7734375 21 18 C19.35 18 17.7 18 16 18 C15.01 14.7 14.02 11.4 13 8 C12.01 11.3 11.02 14.6 10 18 C8.35 18 6.7 18 5 18 C4.16112944 15.56427941 3.32873471 13.12666783 2.5 10.6875 C2.14228516 9.65206055 2.14228516 9.65206055 1.77734375 8.59570312 C0.76791737 5.61068511 0 3.17341086 0 0 Z " fill="#CEE4D8" transform="translate(194,318)"/>
<path d="M0 0 C0.66 0 1.32 0 2 0 C2 0.66 2 1.32 2 2 C1.34 2 0.68 2 0 2 C0.04125 2.94875 0.0825 3.8975 0.125 4.875 C0 8 0 8 -2 10 C-2.639375 10.70125 -3.27875 11.4025 -3.9375 12.125 C-6 14 -6 14 -9 14 C-9.2475 14.763125 -9.495 15.52625 -9.75 16.3125 C-11.11739606 20.34631837 -12.59911654 24.32972514 -14.09765625 28.31640625 C-14.9564823 30.87057723 -15.53497287 33.34886593 -16 36 C-16.33 36 -16.66 36 -17 36 C-17.144375 34.906875 -17.28875 33.81375 -17.4375 32.6875 C-17.88288104 29.06877013 -17.88288104 29.06877013 -19 26 C-19.45375 26.495 -19.9075 26.99 -20.375 27.5 C-22 29 -22 29 -24 29 C-23.4109116 25.38863201 -22.46395522 22.48264972 -20.75 19.25 C-20.15445313 18.08210938 -20.15445313 18.08210938 -19.546875 16.890625 C-17.53566893 14.43248425 -16.05270556 14.52498758 -13 14 C-12.34 13.01 -11.68 12.02 -11 11 C-8.875 9.8125 -8.875 9.8125 -7 9 C-7 7.35 -7 5.7 -7 4 C-6.030625 3.525625 -5.06125 3.05125 -4.0625 2.5625 C-1.19522563 1.29806053 -1.19522563 1.29806053 0 0 Z M1 4 C1.33 4.66 1.66 5.32 2 6 C1.34 5.67 0.68 5.34 0 5 C0.33 4.67 0.66 4.34 1 4 Z " fill="#1A5B44" transform="translate(149,134)"/>
<path d="M0 0 C9 0 9 0 13 2 C14.42041821 4.84083641 14.31452272 6.85477278 14 10 C12.375 12.375 12.375 12.375 10 14 C6.75 14.25 6.75 14.25 4 14 C4 15.65 4 17.3 4 19 C2.68 19 1.36 19 0 19 C0 12.73 0 6.46 0 0 Z " fill="#B7D0C2" transform="translate(323,315)"/>
<path d="M0 0 C1.32 0.33 2.64 0.66 4 1 C2.69589517 4.68635573 1.12911801 7.3217739 -1.375 10.3125 C-14.14988097 26.4993057 -13.5868327 45.28242118 -13 65 C-13.33 64.34 -13.66 63.68 -14 63 C-14.66 63 -15.32 63 -16 63 C-15.67 60.69 -15.34 58.38 -15 56 C-15.66 56 -16.32 56 -17 56 C-16.98839844 55.39671875 -16.97679687 54.7934375 -16.96484375 54.171875 C-16.95582031 53.37265625 -16.94679687 52.5734375 -16.9375 51.75 C-16.92589844 50.96109375 -16.91429687 50.1721875 -16.90234375 49.359375 C-16.99614694 47.09308998 -17.36758937 45.1711105 -18 43 C-17.34 43 -16.68 43 -16 43 C-16.391875 42.319375 -16.78375 41.63875 -17.1875 40.9375 C-18.35860569 36.70350251 -16.96306482 34.85062714 -15 31 C-14.34 31 -13.68 31 -13 31 C-13.185625 30.05125 -13.37125 29.1025 -13.5625 28.125 C-14 25 -14 25 -13 23 C-12.34 23 -11.68 23 -11 23 C-10.67 20.36 -10.34 17.72 -10 15 C-9.01 15 -8.02 15 -7 15 C-6.87625 14.21625 -6.7525 13.4325 -6.625 12.625 C-6 10 -6 10 -4 8 C-3.31867549 6.33927151 -2.65257873 4.672233 -2 3 C-1.34 2.01 -0.68 1.02 0 0 Z " fill="#2D654A" transform="translate(220,177)"/>
<path d="M0 0 C1.65 0.33 3.3 0.66 5 1 C5 1.66 5 2.32 5 3 C7.97 2.34 10.94 1.68 14 1 C14 1.66 14 2.32 14 3 C16.31 3 18.62 3 21 3 C21.33 2.34 21.66 1.68 22 1 C24.97 1 27.94 1 31 1 C31 1.99 31 2.98 31 4 C30.23042969 4.04253906 29.46085937 4.08507812 28.66796875 4.12890625 C25.74793509 4.75153562 25.74793509 4.75153562 24.48828125 7.65234375 C24.10027344 8.73644531 23.71226562 9.82054687 23.3125 10.9375 C21.14849624 16.85150376 21.14849624 16.85150376 19 19 C18.7525 17.8553125 18.7525 17.8553125 18.5 16.6875 C16.30520092 12.75515165 13.1777633 12.19503462 9 11 C9.33 10.01 9.66 9.02 10 8 C12.31 8 14.62 8 17 8 C17.33 7.01 17.66 6.02 18 5 C17.06800781 5.01160156 16.13601563 5.02320313 15.17578125 5.03515625 C6.727271 5.09495359 -1.57961582 4.79517962 -10 4 C-10 3.67 -10 3.34 -10 3 C-9.36191406 2.95101563 -8.72382813 2.90203125 -8.06640625 2.8515625 C-7.24011719 2.77679688 -6.41382813 2.70203125 -5.5625 2.625 C-4.73878906 2.55539062 -3.91507812 2.48578125 -3.06640625 2.4140625 C-2.38449219 2.27742188 -1.70257813 2.14078125 -1 2 C-0.67 1.34 -0.34 0.68 0 0 Z " fill="#2C714F" transform="translate(268,312)"/>
<path d="M0 0 C0 0.33 0 0.66 0 1 C-0.75960526 1.02283554 -1.51921051 1.04567108 -2.30183411 1.06919861 C-9.551042 1.28750893 -16.80018243 1.50790306 -24.04926014 1.73049068 C-27.77377454 1.84478471 -31.49830796 1.95834405 -35.22290039 2.07006836 C-56.1420226 2.68894764 -56.1420226 2.68894764 -77.04576111 3.68721008 C-83.15943193 4.03109495 -89.25276307 4.15086861 -95.375 4.125 C-96.344375 4.12886719 -97.31375 4.13273437 -98.3125 4.13671875 C-102.70907275 4.13066286 -106.69338675 3.96393855 -111 3 C-111 2.67 -111 2.34 -111 2 C-73.9633187 0.35662607 -37.07104065 -0.2841384 0 0 Z " fill="#8CBCA3" transform="translate(291,373)"/>
<path d="M0 0 C2.29296875 0.0703125 2.29296875 0.0703125 5 1 C6.38742899 3.35351294 7.35984186 5.35636291 8.3125 7.875 C8.57611328 8.51308594 8.83972656 9.15117187 9.11132812 9.80859375 C10.26722414 12.68482331 11 14.87529944 11 18 C9.68 18 8.36 18 7 18 C6.67 17.34 6.34 16.68 6 16 C3.36 16 0.72 16 -2 16 C-2.33 16.66 -2.66 17.32 -3 18 C-3.99 18 -4.98 18 -6 18 C-6.41947561 13.3595511 -5.0087475 10.33054173 -3 6.1875 C-2.443125 5.02605469 -1.88625 3.86460937 -1.3125 2.66796875 C-0.879375 1.78753906 -0.44625 0.90710938 0 0 Z " fill="#BBD4C6" transform="translate(294,316)"/>
<path d="M0 0 C1.65 0 3.3 0 5 0 C6.17112946 2.62309099 7.33705964 5.24828142 8.5 7.875 C8.83386719 8.62136719 9.16773438 9.36773437 9.51171875 10.13671875 C9.82753906 10.85214844 10.14335937 11.56757813 10.46875 12.3046875 C10.90864258 13.2944458 10.90864258 13.2944458 11.35742188 14.30419922 C12 16 12 16 12 18 C10.35 17.67 8.7 17.34 7 17 C7 16.01 7 15.02 7 14 C5.72125 14.103125 4.4425 14.20625 3.125 14.3125 C2.40570313 14.37050781 1.68640625 14.42851562 0.9453125 14.48828125 C-1.39519216 14.87393036 -1.39519216 14.87393036 -3 18 C-4.32 17.67 -5.64 17.34 -7 17 C-6.57847656 16.10796875 -6.15695313 15.2159375 -5.72265625 14.296875 C-4.90087891 12.54117187 -4.90087891 12.54117187 -4.0625 10.75 C-3.51722656 9.58984375 -2.97195312 8.4296875 -2.41015625 7.234375 C-1.33551734 4.76955223 -0.51219919 2.61934773 0 0 Z " fill="#CDE1D5" transform="translate(246,317)"/>
<path d="M0 0 C0.90105469 0.11988281 1.80210937 0.23976563 2.73046875 0.36328125 C3.41753906 0.47027344 4.10460937 0.57726562 4.8125 0.6875 C4.4825 2.0075 4.1525 3.3275 3.8125 4.6875 C1.5025 4.6875 -0.8075 4.6875 -3.1875 4.6875 C-3.5175 5.3475 -3.8475 6.0075 -4.1875 6.6875 C-3.445 6.81125 -2.7025 6.935 -1.9375 7.0625 C0.61391485 7.64236701 2.5392573 8.42458739 4.8125 9.6875 C5.16805556 15.02083333 5.16805556 15.02083333 3.8125 17.5625 C0.47344446 19.44071874 -2.39748874 18.98829454 -6.1875 18.6875 C-6.8475 18.0275 -7.5075 17.3675 -8.1875 16.6875 C-8.1875 15.6975 -8.1875 14.7075 -8.1875 13.6875 C-5.2175 14.0175 -2.2475 14.3475 0.8125 14.6875 C-1.60579965 11.06005052 -3.13111443 10.89578506 -7.1875 9.6875 C-8.1875 8.6875 -8.1875 8.6875 -8.4375 5.8125 C-8.1875 2.6875 -8.1875 2.6875 -6.99609375 0.97265625 C-4.483496 -0.81275338 -3.00565307 -0.42937901 0 0 Z " fill="#CADDD2" transform="translate(281.1875,316.3125)"/>
<path d="M0 0 C1.32 0 2.64 0 4 0 C4 2.31 4 4.62 4 7 C6.64 7 9.28 7 12 7 C12 4.69 12 2.38 12 0 C12.99 0 13.98 0 15 0 C15 5.61 15 11.22 15 17 C14.01 17 13.02 17 12 17 C12 14.69 12 12.38 12 10 C9.36 10 6.72 10 4 10 C4 12.64 4 15.28 4 18 C2.68 18 1.36 18 0 18 C0 12.06 0 6.12 0 0 Z " fill="#D5E6DB" transform="translate(222,318)"/>
<path d="M0 0 C2.3232688 3.4849032 2.25274114 4.85329756 2.25878906 8.96850586 C2.26509338 10.19665512 2.27139771 11.42480438 2.27789307 12.69017029 C2.27431287 14.03172956 2.2702108 15.37328753 2.265625 16.71484375 C2.26697245 18.09102955 2.26891366 19.46721488 2.27142334 20.84339905 C2.27437183 23.72759534 2.27008655 26.61166772 2.26074219 29.49584961 C2.24935841 33.18917446 2.25590186 36.88220829 2.26788712 40.57552242 C2.27512235 43.41771121 2.27280998 46.25983129 2.26763153 49.10202217 C2.26629907 50.46355791 2.2679286 51.82509993 2.27259064 53.18662834 C2.27768169 55.09178418 2.26854346 56.99696194 2.25878906 58.90209961 C2.25719788 59.98559189 2.25560669 61.06908417 2.25396729 62.18540955 C2.00223314 64.97525124 1.44148662 66.62803953 0 69 C-2.1264906 61.61982673 -2.1264906 61.61982673 -1.53407288 58.71687317 C-0.97101716 55.85256189 -0.8407777 53.20921706 -0.79467773 50.29174805 C-0.77473251 49.17096359 -0.75478729 48.05017914 -0.73423767 46.89543152 C-0.70916893 45.0967437 -0.70916893 45.0967437 -0.68359375 43.26171875 C-0.66281265 42.02581497 -0.64203156 40.78991119 -0.62062073 39.51655579 C-0.56640069 36.24347874 -0.51612422 32.9703726 -0.46777344 29.69720459 C-0.4173843 26.3521174 -0.36171184 23.00712276 -0.30664062 19.66210938 C-0.19964057 13.10814229 -0.09784108 6.55410987 0 0 Z " fill="#63AC88" transform="translate(388,176)"/>
<path d="M0 0 C-1.1889853 3.56695591 -2.34748618 4.28715826 -5.3125 6.5 C-6.09238281 7.0878125 -6.87226563 7.675625 -7.67578125 8.28125 C-8.44277344 8.8484375 -9.20976562 9.415625 -10 10 C-11.33360591 10.99963646 -12.66703279 11.99951202 -14 13 C-13.67 11.68 -13.34 10.36 -13 9 C-12.34 9 -11.68 9 -11 9 C-11 8.34 -11 7.68 -11 7 C-12.11375 7.66 -13.2275 8.32 -14.375 9 C-17.75 11 -17.75 11 -20 11 C-19.67 12.65 -19.34 14.3 -19 16 C-19.7425 16.4125 -20.485 16.825 -21.25 17.25 C-23.90171685 18.93745618 -25.86674014 20.70872089 -28 23 C-28.66 22.67 -29.32 22.34 -30 22 C-30 21.34 -30 20.68 -30 20 C-29.34 20 -28.68 20 -28 20 C-27.773125 19.46375 -27.54625 18.9275 -27.3125 18.375 C-23.94870199 12.28812742 -19.63994664 8.72537513 -13.8125 5.1875 C-13.18408203 4.79369141 -12.55566406 4.39988281 -11.90820312 3.99414062 C-7.53787346 1.26911154 -5.14610261 -0.13542375 0 0 Z " fill="#387A5F" transform="translate(162,127)"/>
<path d="M0 0 C1.83014648 -0.01836914 1.83014648 -0.01836914 3.69726562 -0.03710938 C11.72322297 -0.05018807 17.63464842 0.51719377 24.8125 4.1875 C-7.32258903 4.43352836 -7.32258903 4.43352836 -14.1875 3.1875 C-14.5175 2.5275 -14.8475 1.8675 -15.1875 1.1875 C-10.79532566 -1.00858717 -4.82284812 0.00250798 0 0 Z " fill="#58A380" transform="translate(317.1875,123.8125)"/>
<path d="M0 0 C3.09918016 4.64877024 4.77308791 9.26979531 5.5 14.8125 C6.01234101 18.07867394 6.39721633 19.07620337 9 21 C8.67 21.99 8.34 22.98 8 24 C5.5625 23.625 5.5625 23.625 3 23 C2.67 22.34 2.34 21.68 2 21 C-0.74262618 19.02659892 -0.74262618 19.02659892 -3 18.1875 C-5.68794736 16.59153125 -6.67379601 14.79200841 -8 12 C-7.67 11.34 -7.34 10.68 -7 10 C-6.67 10.99 -6.34 11.98 -6 13 C-4.02 13 -2.04 13 0 13 C0.08206368 8.81475251 -0.15810822 5.08918864 -1 1 C-0.67 0.67 -0.34 0.34 0 0 Z " fill="#2B6353" transform="translate(136,330)"/>
<path d="M0 0 C11.28858024 0.24443776 21.30723694 3.69017652 30 11 C30 11.66 30 12.32 30 13 C24.64022374 13.51045488 22.3068216 12.0626287 18 9 C17.01 9 16.02 9 15 9 C15 8.34 15 7.68 15 7 C13.35 6.67 11.7 6.34 10 6 C10 5.67 10 5.34 10 5 C8.906875 4.9175 7.81375 4.835 6.6875 4.75 C3 4 3 4 1.26953125 1.953125 C0.64111328 0.98632812 0.64111328 0.98632812 0 0 Z " fill="#81C3A4" transform="translate(337,125)"/>
<path d="M0 0 C4.62 0 9.24 0 14 0 C14 0.99 14 1.98 14 3 C12.35 3 10.7 3 9 3 C9 7.95 9 12.9 9 18 C7.68 18 6.36 18 5 18 C5 13.05 5 8.1 5 3 C3.35 3 1.7 3 0 3 C0 2.01 0 1.02 0 0 Z " fill="#CCDFD4" transform="translate(257,317)"/>
<path d="M0 0 C8.3984375 -0.1953125 8.3984375 -0.1953125 11 0 C13 2 13 2 13.25 4.9375 C13 8 13 8 11 11 C7.875 11.1875 7.875 11.1875 5 11 C6 9 6 9 9 8 C9 6.68 9 5.36 9 4 C6.03 3.505 6.03 3.505 3 3 C2.67 7.29 2.34 11.58 2 16 C1.34 16 0.68 16 0 16 C0 10.72 0 5.44 0 0 Z " fill="#D9E6E0" transform="translate(308,317)"/>
<path d="M0 0 C6.625 0.75 6.625 0.75 10 3 C10.66 2.01 11.32 1.02 12 0 C14.6015625 -0.29296875 14.6015625 -0.29296875 17.625 -0.1875 C19.12933594 -0.14689453 19.12933594 -0.14689453 20.6640625 -0.10546875 C21.43492187 -0.07066406 22.20578125 -0.03585937 23 0 C23 0.66 23 1.32 23 2 C19.7 2 16.4 2 13 2 C12.855625 3.051875 12.71125 4.10375 12.5625 5.1875 C12.12473034 8.15460549 11.62195134 11.06794366 11 14 C10.34 14 9.68 14 9 14 C8.49632243 12.54293274 7.99717444 11.08429904 7.5 9.625 C7.2215625 8.81289063 6.943125 8.00078125 6.65625 7.1640625 C6 5 6 5 6 3 C2.60085025 4.13304992 1.94745549 5.12518475 0 8 C-0.98120464 4.94736336 -0.98120464 3.05263664 0 0 Z " fill="#5BA183" transform="translate(203,315)"/>
<path d="M0 0 C1.32 0.33 2.64 0.66 4 1 C4 1.66 4 2.32 4 3 C4.33 3.66 4.66 4.32 5 5 C5.66 5 6.32 5 7 5 C7.33 5.99 7.66 6.98 8 8 C7.0479279 9.00596297 6.08812654 10.00461563 5.125 11 C4.59132812 11.556875 4.05765625 12.11375 3.5078125 12.6875 C2 14 2 14 0 14 C-0.66 13.01 -1.32 12.02 -2 11 C-2.556875 10.360625 -3.11375 9.72125 -3.6875 9.0625 C-5 7 -5 7 -4.875 4.8125 C-4.58625 4.214375 -4.2975 3.61625 -4 3 C-3.01 2.67 -2.02 2.34 -1 2 C-0.67 1.34 -0.34 0.68 0 0 Z " fill="#DEE3E1" transform="translate(229,176)"/>
<path d="M0 0 C0.99 0 1.98 0 3 0 C2.83628906 1.0415625 2.67257813 2.083125 2.50390625 3.15625 C1.741602 9.25468399 1.8936759 15.36462636 1.9375 21.5 C1.94201172 22.70398438 1.94652344 23.90796875 1.95117188 25.1484375 C1.9628805 28.09901073 1.97928005 31.04947859 2 34 C1.67 33.34 1.34 32.68 1 32 C0.34 32 -0.32 32 -1 32 C-0.67 29.69 -0.34 27.38 0 25 C-0.66 25 -1.32 25 -2 25 C-1.98839844 24.39671875 -1.97679687 23.7934375 -1.96484375 23.171875 C-1.95582031 22.37265625 -1.94679687 21.5734375 -1.9375 20.75 C-1.92589844 19.96109375 -1.91429687 19.1721875 -1.90234375 18.359375 C-1.99614694 16.09308998 -2.36758937 14.1711105 -3 12 C-2.34 12 -1.68 12 -1 12 C-1.391875 11.319375 -1.78375 10.63875 -2.1875 9.9375 C-3.35860569 5.70350251 -1.96306482 3.85062714 0 0 Z " fill="#2F6E4F" transform="translate(205,208)"/>
<path d="M0 0 C1.2090244 3.81941348 0.44246493 6.3870629 -0.49285889 10.24459839 C-1.53607401 15.91259996 -1.36337814 21.69460874 -1.4140625 27.44140625 C-1.43280879 28.81860977 -1.45238468 30.19580222 -1.4727478 31.57298279 C-1.52371009 35.16819686 -1.56352587 38.76344803 -1.60089111 42.35882568 C-1.64115816 46.0394379 -1.69214598 49.71990063 -1.7421875 53.40039062 C-1.83852061 60.60015724 -1.92305918 67.79999723 -2 75 C-2.33 75 -2.66 75 -3 75 C-3.20134546 67.10652884 -3.38491614 59.21291904 -3.54658794 51.31854534 C-3.62222252 47.65179748 -3.7036864 43.98538325 -3.79907227 40.3190918 C-3.89111733 36.77257892 -3.96706644 33.22603506 -4.03244972 29.6789341 C-4.07322272 27.68541785 -4.13012199 25.69225208 -4.18742371 23.69914246 C-4.32288618 15.40001922 -3.77184714 7.54369429 0 0 Z " fill="#499370" transform="translate(136,157)"/>
<path d="M0 0 C2.00720923 0.28674418 4.0085944 0.61866701 6 1 C5.67 1.66 5.34 2.32 5 3 C3.68 3.33 2.36 3.66 1 4 C0.67 9.28 0.34 14.56 0 20 C-4.21219816 15.78780184 -5.90315441 12.03375746 -6.1875 6.0625 C-6.125625 5.051875 -6.06375 4.04125 -6 3 C-4.68 3.33 -3.36 3.66 -2 4 C-1.67 3.01 -1.34 2.02 -1 1 C-0.67 0.67 -0.34 0.34 0 0 Z " fill="#246244" transform="translate(306,312)"/>
<path d="M0 0 C3 1 3 1 6 3 C6 2.34 6 1.68 6 1 C10.13822218 2.62996896 14.22768778 4.36655355 18.3125 6.125 C19.28026367 6.54072266 19.28026367 6.54072266 20.26757812 6.96484375 C21.84529005 7.64267554 23.42267826 8.32126074 25 9 C25 9.66 25 10.32 25 11 C18.84637979 10.7840835 13.79648075 9.38155007 8.125 7.125 C7.14358032 6.73997314 7.14358032 6.73997314 6.14233398 6.34716797 C2.87162253 4.99888401 0.24995622 3.78327918 -2 1 C-1.34 0.67 -0.68 0.34 0 0 Z " fill="#4C7C69" transform="translate(153,364)"/>
<path d="M0 0 C3.3 0 6.6 0 10 0 C10 0.33 10 0.66 10 1 C7.03 1 4.06 1 1 1 C1 6.28 1 11.56 1 17 C1.66 17 2.32 17 3 17 C3.33 12.71 3.66 8.42 4 4 C5.98 4 7.96 4 10 4 C10.33 5.65 10.66 7.3 11 9 C9.02 9.99 9.02 9.99 7 11 C7.99 11.66 8.98 12.32 10 13 C8.02 13 6.04 13 4 13 C4 14.65 4 16.3 4 18 C2.68 18 1.36 18 0 18 C0 12.06 0 6.12 0 0 Z " fill="#B5CCC1" transform="translate(307,316)"/>
<path d="M0 0 C0.70189453 0.00451172 1.40378906 0.00902344 2.12695312 0.01367188 C3.85550538 0.02543073 5.58401365 0.04336546 7.3125 0.0625 C6.9825 1.0525 6.6525 2.0425 6.3125 3.0625 C2.3525 2.7325 -1.6075 2.4025 -5.6875 2.0625 C-5.6875 8.6625 -5.6875 15.2625 -5.6875 22.0625 C-7.3375 22.3925 -8.9875 22.7225 -10.6875 23.0625 C-10.6875 22.0725 -10.6875 21.0825 -10.6875 20.0625 C-9.6975 20.0625 -8.7075 20.0625 -7.6875 20.0625 C-8.038125 19.11375 -8.38875 18.165 -8.75 17.1875 C-9.6875 14.0625 -9.6875 14.0625 -8.6875 12.0625 C-8.61753986 10.35547265 -8.60309846 8.64581997 -8.625 6.9375 C-8.63402344 6.02742188 -8.64304687 5.11734375 -8.65234375 4.1796875 C-8.66394531 3.48101562 -8.67554688 2.78234375 -8.6875 2.0625 C-9.3475 1.7325 -10.0075 1.4025 -10.6875 1.0625 C-7.06882441 -0.1437252 -3.76243749 -0.04566918 0 0 Z " fill="#466F5B" transform="translate(328.6875,312.9375)"/>
<path d="M0 0 C0.66 0.33 1.32 0.66 2 1 C2 1.66 2 2.32 2 3 C2.66 3 3.32 3 4 3 C5.47265625 5.046875 5.47265625 5.046875 7.0625 7.75 C7.85333984 9.07257813 7.85333984 9.07257813 8.66015625 10.421875 C9.84168846 12.6953772 10.68338207 14.46705658 11 17 C9.5625 19.25 9.5625 19.25 8 21 C7.32845067 19.71086513 6.66291141 18.41859796 6 17.125 C5.62875 16.40570313 5.2575 15.68640625 4.875 14.9453125 C4 13 4 13 4 11 C3.34 11 2.68 11 2 11 C0.27016644 7.10787448 0 4.26325663 0 0 Z " fill="#48886A" transform="translate(306,189)"/>
<path d="M0 0 C1.68178661 2.52267991 2.90106742 4.81091823 4.125 7.5625 C4.47820312 8.34753906 4.83140625 9.13257813 5.1953125 9.94140625 C6 12 6 12 6 14 C4.35 13.67 2.7 13.34 1 13 C1 12.01 1 11.02 1 10 C-1.64 10 -4.28 10 -7 10 C-5.25 4.25 -5.25 4.25 -3 2 C-2.01 2.66 -1.02 3.32 0 4 C0 2.68 0 1.36 0 0 Z " fill="#AEC6BA" transform="translate(252,321)"/>
<path d="M0 0 C2.28621799 0.00717808 4.52519732 0.10563477 6.80078125 0.3203125 C7.46078125 1.6403125 8.12078125 2.9603125 8.80078125 4.3203125 C5.83078125 3.9903125 2.86078125 3.6603125 -0.19921875 3.3203125 C1.35960214 7.54522734 1.35960214 7.54522734 4.92578125 8.5703125 C5.87453125 8.8178125 6.82328125 9.0653125 7.80078125 9.3203125 C7.80078125 9.6503125 7.80078125 9.9803125 7.80078125 10.3203125 C2.60868721 10.53223471 -1.32595775 9.9115814 -6.19921875 8.3203125 C-3.60058776 0.52441953 -3.60058776 0.52441953 0 0 Z " fill="#356C52" transform="translate(273.19921875,326.6796875)"/>
<path d="M0 0 C0.94875 0.350625 1.8975 0.70125 2.875 1.0625 C2.875 5.0225 2.875 8.9825 2.875 13.0625 C-2.125 11.0625 -2.125 11.0625 -3.9375 7.6875 C-5.125 4.0625 -5.125 4.0625 -5.125 0.0625 C-3.125 -0.9375 -3.125 -0.9375 0 0 Z " fill="#3B8262" transform="translate(258.125,319.9375)"/>
<path d="M0 0 C2.78270567 0.87874916 5.49864809 1.75942454 8.1328125 3.0234375 C15.43993366 6.42378101 22.03228422 6.41331091 30 6 C29.34 7.32 28.68 8.64 28 10 C23.71 9.67 19.42 9.34 15 9 C15 8.34 15 7.68 15 7 C13.68 7.33 12.36 7.66 11 8 C11 7.34 11 6.68 11 6 C7.71303767 5.20046862 6.28976808 4.90341064 3 6 C2.67 5.34 2.34 4.68 2 4 C-0.01669827 2.86649466 -0.01669827 2.86649466 -2 2 C-1.34 2 -0.68 2 0 2 C0 1.34 0 0.68 0 0 Z M-2 4 C0 5 0 5 0 5 Z " fill="#306D4F" transform="translate(267,250)"/>
<path d="M0 0 C0.66 0 1.32 0 2 0 C2 0.66 2 1.32 2 2 C1.34 2 0.68 2 0 2 C0.061875 3.423125 0.061875 3.423125 0.125 4.875 C0 8 0 8 -2 10 C-2.639375 10.70125 -3.27875 11.4025 -3.9375 12.125 C-6 14 -6 14 -9 14 C-9.33 14.66 -9.66 15.32 -10 16 C-10.33 15.01 -10.66 14.02 -11 13 C-10.34 12.443125 -9.68 11.88625 -9 11.3125 C-6.74507789 9.15937692 -6.74507789 9.15937692 -6.75 6.25 C-6.8325 5.5075 -6.915 4.765 -7 4 C-5.5459375 3.2884375 -5.5459375 3.2884375 -4.0625 2.5625 C-1.19522563 1.29806053 -1.19522563 1.29806053 0 0 Z M1 4 C1.33 4.66 1.66 5.32 2 6 C1.34 5.67 0.68 5.34 0 5 C0.33 4.67 0.66 4.34 1 4 Z " fill="#1C5F43" transform="translate(149,134)"/>
<path d="M0 0 C0.66 0.66 1.32 1.32 2 2 C1.67 2.33 1.34 2.66 1 3 C0.95653201 4.99952758 0.960008 7.00039988 1 9 C1 9.99 1 10.98 1 12 C0.01 12 -0.98 12 -2 12 C-2.66 13.65 -3.32 15.3 -4 17 C-4.66 16.67 -5.32 16.34 -6 16 C-6 12.37 -6 8.74 -6 5 C-4.68 5 -3.36 5 -2 5 C-2 3.68 -2 2.36 -2 1 C-1.34 0.67 -0.68 0.34 0 0 Z " fill="#3A7C5D" transform="translate(273,316)"/>
<path d="M0 0 C7.98911351 2.74625777 12.93361822 9.35679344 17.28515625 16.3359375 C17.52105469 16.88507813 17.75695312 17.43421875 18 18 C17.67 18.66 17.34 19.32 17 20 C16.34 18.68 15.68 17.36 15 16 C14.34 16 13.68 16 13 16 C13 15.34 13 14.68 13 14 C12.34 14 11.68 14 11 14 C10.34 13.01 9.68 12.02 9 11 C5.89440826 7.55866861 3.44973091 5.39848686 -1 4 C-0.67 2.68 -0.34 1.36 0 0 Z " fill="#93D9BA" transform="translate(363,137)"/>
<path d="M0 0 C-0.598125 0.268125 -1.19625 0.53625 -1.8125 0.8125 C-4.02589929 2.01405962 -5.26457422 3.19965805 -7 5 C-7.54140625 5.50917969 -8.0828125 6.01835937 -8.640625 6.54296875 C-11.94769183 9.84522129 -11.94769183 9.84522129 -13.19921875 14.19921875 C-12.87160944 17.91717774 -12.87160944 17.91717774 -11 21 C-10.95936168 22.66617115 -10.957279 24.33388095 -11 26 C-15.06831145 20.87038991 -15.65291108 16.39852854 -15 10 C-13.5 6.4375 -13.5 6.4375 -12 4 C-11.34 4 -10.68 4 -10 4 C-10 3.34 -10 2.68 -10 2 C-6.5980513 -0.09350689 -3.94727588 -0.17942163 0 0 Z " fill="#C9DBD3" transform="translate(253,194)"/>
<path d="M0 0 C4.00749844 3.07241547 4.68514447 5.94042194 5.5625 10.671875 C6.1606874 13.85508654 7.07589252 16.89763917 8 20 C7.67 20.33 7.34 20.66 7 21 C6.76518307 23.18292774 6.58636677 25.37203174 6.4375 27.5625 C6.31181641 29.35880859 6.31181641 29.35880859 6.18359375 31.19140625 C6.12300781 32.11824219 6.06242187 33.04507813 6 34 C5.67 34 5.34 34 5 34 C4.95512451 33.410979 4.91024902 32.82195801 4.86401367 32.21508789 C4.65018006 29.49649837 4.41894026 26.77964505 4.1875 24.0625 C4.08211914 22.67321289 4.08211914 22.67321289 3.97460938 21.25585938 C3.49785715 15.82088396 2.59366859 11.06459448 0.61450195 5.97045898 C0 4 0 4 0 0 Z " fill="#6CAD8F" transform="translate(327,198)"/>
<path d="M0 0 C2.31 0 4.62 0 7 0 C5.68 0.33 4.36 0.66 3 1 C3 3.64 3 6.28 3 9 C4.65 9 6.3 9 8 9 C8 9.66 8 10.32 8 11 C6.35 11 4.7 11 3 11 C3 12.65 3 14.3 3 16 C2.01 16 1.02 16 0 16 C0 10.72 0 5.44 0 0 Z " fill="#D6E4DC" transform="translate(324,317)"/>
<path d="M0 0 C0.33 0 0.66 0 1 0 C4.0847873 12.99656289 1.94076012 24.87749214 -3 37 C-3.66 36.01 -4.32 35.02 -5 34 C-4.505 33.505 -4.505 33.505 -4 33 C-3.46477109 30.19791923 -3.03500884 27.38530909 -2.59765625 24.56640625 C-2 22 -2 22 0 20 C0.27714896 17.86747907 0.27714896 17.86747907 0.1953125 15.4296875 C0.18886719 14.53378906 0.18242187 13.63789063 0.17578125 12.71484375 C0.15902344 11.77769531 0.14226562 10.84054688 0.125 9.875 C0.11597656 8.93011719 0.10695313 7.98523438 0.09765625 7.01171875 C0.07404522 4.67422708 0.04111516 2.33723877 0 0 Z " fill="#52856C" transform="translate(319,213)"/>
<path d="M0 0 C0.99 0 1.98 0 3 0 C6 6.5 6 6.5 6 11 C4.68 11 3.36 11 2 11 C1.67 10.01 1.34 9.02 1 8 C0.34 9.32 -0.32 10.64 -1 12 C-2.1875 9.9375 -2.1875 9.9375 -3 7 C-2.27873258 4.45187276 -1.21291073 2.37917104 0 0 Z " fill="#CDDED4" transform="translate(206,318)"/>
<path d="M0 0 C6.27 0 12.54 0 19 0 C19.33 0.66 19.66 1.32 20 2 C19.44014404 2.05534912 18.88028809 2.11069824 18.3034668 2.16772461 C15.76444195 2.4207582 13.225981 2.6790698 10.6875 2.9375 C9.80642578 3.02451172 8.92535156 3.11152344 8.01757812 3.20117188 C6.74624023 3.33168945 6.74624023 3.33168945 5.44921875 3.46484375 C4.66893311 3.543396 3.88864746 3.62194824 3.0847168 3.70288086 C0.81117999 3.96337997 0.81117999 3.96337997 -2 5 C-1.34 3.35 -0.68 1.7 0 0 Z " fill="#4C7E65" transform="translate(257,172)"/>
<path d="M0 0 C1.65 0.33 3.3 0.66 5 1 C5 1.66 5 2.32 5 3 C7.97 2.34 10.94 1.68 14 1 C14 1.66 14 2.32 14 3 C15.32 3.33 16.64 3.66 18 4 C9.14205656 6.57760017 -0.96793316 4.80412678 -10 4 C-10 3.67 -10 3.34 -10 3 C-9.36191406 2.95101563 -8.72382813 2.90203125 -8.06640625 2.8515625 C-7.24011719 2.77679688 -6.41382813 2.70203125 -5.5625 2.625 C-4.73878906 2.55539062 -3.91507812 2.48578125 -3.06640625 2.4140625 C-2.38449219 2.27742188 -1.70257813 2.14078125 -1 2 C-0.67 1.34 -0.34 0.68 0 0 Z " fill="#307251" transform="translate(268,312)"/>
<path d="M0 0 C2.64 0 5.28 0 8 0 C8 2.64 8 5.28 8 8 C6.0625 7.625 6.0625 7.625 4 7 C3.67 6.34 3.34 5.68 3 5 C2.67 5.66 2.34 6.32 2 7 C1.34 7 0.68 7 0 7 C0 4.69 0 2.38 0 0 Z " fill="#5E9E81" transform="translate(226,328)"/>
<path d="M0 0 C1.85952234 3.41613605 3.02840764 6.91757822 4.1875 10.625 C4.55230469 11.77226562 4.91710937 12.91953125 5.29296875 14.1015625 C6 17 6 17 5 19 C4.34 19 3.68 19 3 19 C-1.69630423 7.40599893 -1.69630423 7.40599893 -1 1 C-0.67 0.67 -0.34 0.34 0 0 Z " fill="#5FA584" transform="translate(193,317)"/>
<path d="M0 0 C1.32 0 2.64 0 4 0 C4.25 6.625 4.25 6.625 2 10 C1.60612212 12.32387947 1.26513915 14.65793749 1 17 C1.66 17 2.32 17 3 17 C3 15.02 3 13.04 3 11 C3.33 11 3.66 11 4 11 C4 13.31 4 15.62 4 18 C2.68 18 1.36 18 0 18 C0 12.06 0 6.12 0 0 Z " fill="#C7DED0" transform="translate(222,318)"/>
<path d="M0 0 C0.66 0.33 1.32 0.66 2 1 C-0.75436512 3.92129634 -3.4455383 6.39822344 -6.75 8.6875 C-10.00635047 10.62145364 -10.00635047 10.62145364 -11 13 C-12.65 13 -14.3 13 -16 13 C-15.375 11.125 -15.375 11.125 -14 9 C-10.875 7.75 -10.875 7.75 -8 7 C-8 6.34 -8 5.68 -8 5 C-6.3203125 3.67578125 -6.3203125 3.67578125 -4.125 2.3125 C-3.40570313 1.85488281 -2.68640625 1.39726562 -1.9453125 0.92578125 C-0.98238281 0.46751953 -0.98238281 0.46751953 0 0 Z " fill="#3D7559" transform="translate(314,273)"/>
<path d="M0 0 C8.25 0.33 16.5 0.66 25 1 C21.88841402 4.11158598 18.20893138 3.97060802 14 4 C9.63016421 3.51500701 5.32090145 2.80808203 1 2 C0.67 2.66 0.34 3.32 0 4 C-0.33 3.34 -0.66 2.68 -1 2 C-0.67 1.34 -0.34 0.68 0 0 Z " fill="#2A6D4C" transform="translate(256,290)"/>
<path d="M0 0 C0.33 0 0.66 0 1 0 C1.04898438 1.22976563 1.09796875 2.45953125 1.1484375 3.7265625 C1.22351029 5.35939566 1.29905615 6.99220712 1.375 8.625 C1.4059375 9.43324219 1.436875 10.24148438 1.46875 11.07421875 C1.69748245 15.763234 2.43021794 19.54384447 4 24 C4.1953125 26.7734375 4.1953125 26.7734375 4.125 29.375 C4.10695313 30.24898438 4.08890625 31.12296875 4.0703125 32.0234375 C4.03550781 33.00183594 4.03550781 33.00183594 4 34 C-0.34280937 29.65719063 -0.11861242 22.06964389 -0.1953125 16.2109375 C-0.18225606 14.26552763 -0.15876113 12.32016072 -0.125 10.375 C-0.11597656 9.37082031 -0.10695313 8.36664063 -0.09765625 7.33203125 C-0.07437746 4.88775874 -0.04168487 2.44401592 0 0 Z " fill="#588177" transform="translate(121,297)"/>
<path d="M0 0 C1.32 0 2.64 0 4 0 C4.2475 0.598125 4.495 1.19625 4.75 1.8125 C5.87980389 4.13293213 5.87980389 4.13293213 8.125 5.5625 C8.74375 6.036875 9.3625 6.51125 10 7 C10 7.99 10 8.98 10 10 C10.66 10 11.32 10 12 10 C14.47346304 12.47346304 14.98313144 13.70761168 15.1875 17.25 C15.125625 18.1575 15.06375 19.065 15 20 C12.88986246 18.19131068 11.88860557 16.76361836 10.6875 14.21484375 C8.91241968 10.83315139 6.92474721 8.45959487 4.3125 5.6875 C0 1.0861244 0 1.0861244 0 0 Z " fill="#6AAB8E" transform="translate(312,178)"/>
<path d="M0 0 C2.18975773 3.28463659 2.99806563 6.20696275 4 10 C1.03 9.67 -1.94 9.34 -5 9 C-4.67 7.02 -4.34 5.04 -4 3 C-3.01 2.67 -2.02 2.34 -1 2 C-0.67 1.34 -0.34 0.68 0 0 Z " fill="#A5BBAF" transform="translate(299,319)"/>
<path d="M0 0 C1.32 0.33 2.64 0.66 4 1 C3.75 2.875 3.75 2.875 3 5 C1.1875 6 1.1875 6 -1 7 C-2.37086915 8.29470975 -3.71340837 9.62150897 -5 11 C-5.66 10.67 -6.32 10.34 -7 10 C-7 9.34 -7 8.68 -7 8 C-6.34 8 -5.68 8 -5 8 C-4.731875 7.4225 -4.46375 6.845 -4.1875 6.25 C-2.98280141 3.9674132 -1.59201885 2.0262058 0 0 Z " fill="#4E786E" transform="translate(139,139)"/>
<path d="M0 0 C0.33 0.66 0.66 1.32 1 2 C4.3 2 7.6 2 11 2 C11 1.34 11 0.68 11 0 C12.32 0.33 13.64 0.66 15 1 C15.33 2.65 15.66 4.3 16 6 C14.68 6 13.36 6 12 6 C11.67 5.34 11.34 4.68 11 4 C8.36 4 5.72 4 3 4 C2.67 4.66 2.34 5.32 2 6 C1.01 6 0.02 6 -1 6 C-1.042721 4.33388095 -1.04063832 2.66617115 -1 1 C-0.67 0.67 -0.34 0.34 0 0 Z " fill="#B1C8BC" transform="translate(289,328)"/>
<path d="M0 0 C1.65 0.33 3.3 0.66 5 1 C4.44894091 4.9492568 3.61064629 8.34920174 2 12 C0 9 0 9 -1 6 C-1.66 5.67 -2.32 5.34 -3 5 C-2.67 3.68 -2.34 2.36 -2 1 C-1.34 1.33 -0.68 1.66 0 2 C0 1.34 0 0.68 0 0 Z " fill="#42936D" transform="translate(241,316)"/>
<path d="M0 0 C1.4606285 2.64738916 2 3.89448334 2 7 C2.33 7.99 2.66 8.98 3 10 C2.030625 10.28875 1.06125 10.5775 0.0625 10.875 C-3.10664203 11.64214682 -3.10664203 11.64214682 -4 14 C-4.66 14 -5.32 14 -6 14 C-5.41892368 10.2397015 -4.34800504 7.46964968 -2.4375 4.1875 C-1.98246094 3.39730469 -1.52742187 2.60710937 -1.05859375 1.79296875 C-0.53458984 0.90544922 -0.53458984 0.90544922 0 0 Z " fill="#407463" transform="translate(131,149)"/>
<path d="M0 0 C0.33 0 0.66 0 1 0 C1.72835713 13.27228548 1.72835713 13.27228548 -2.02734375 19.31640625 C-3.11808049 20.9996247 -3.11808049 20.9996247 -3.44140625 23.15234375 C-3.71791016 24.06693359 -3.71791016 24.06693359 -4 25 C-4.99 25.33 -5.98 25.66 -7 26 C-6.566875 24.7625 -6.13375 23.525 -5.6875 22.25 C-3.25926717 14.97680972 -1.45564197 7.52539434 0 0 Z " fill="#589175" transform="translate(332,232)"/>
<path d="M0 0 C0 5.94 0 11.88 0 18 C-2.90115431 14.13179425 -3.3858547 13.3817408 -3.6875 8.9375 C-3.75324219 8.08027344 -3.81898438 7.22304687 -3.88671875 6.33984375 C-3.97281174 4.56157818 -4 2.7803484 -4 1 C-2 0 -2 0 0 0 Z " fill="#286245" transform="translate(239,200)"/>
<path d="M0 0 C0.66 0 1.32 0 2 0 C2 0.66 2 1.32 2 2 C3.98 2 5.96 2 8 2 C8 2.33 8 2.66 8 3 C6.35 3 4.7 3 3 3 C2.67 7.29 2.34 11.58 2 16 C1.34 16 0.68 16 0 16 C0 10.72 0 5.44 0 0 Z " fill="#CCD8D4" transform="translate(308,317)"/>
<path d="M0 0 C0.33 0.66 0.66 1.32 1 2 C1.61875 2.309375 2.2375 2.61875 2.875 2.9375 C5.08509381 4.0425469 6.42409668 5.10891602 8 7 C8 7.66 8 8.32 8 9 C8.66 9 9.32 9 10 9 C11.65 11.97 13.3 14.94 15 18 C14.34 18.33 13.68 18.66 13 19 C12.57589844 18.34773438 12.15179688 17.69546875 11.71484375 17.0234375 C7.9612147 11.43011773 4.32413417 7.12892038 -1 3 C-0.67 2.01 -0.34 1.02 0 0 Z " fill="#9CC8B7" transform="translate(367,136)"/>
<path d="M0 0 C0.33 0 0.66 0 1 0 C1.02725341 1.7290774 1.04650987 3.45828176 1.0625 5.1875 C1.07410156 6.15042969 1.08570313 7.11335938 1.09765625 8.10546875 C1.00486622 10.85576513 0.62111685 13.32479591 0 16 C1.98 16 3.96 16 6 16 C2.81237635 18.12508244 0.73487777 18.5020163 -3 19 C-2.68798326 16.95825942 -2.37536431 14.91661087 -2.0625 12.875 C-1.88847656 11.73804688 -1.71445313 10.60109375 -1.53515625 9.4296875 C-1.04410734 6.28267331 -0.52981281 3.14069217 0 0 Z " fill="#5B9077" transform="translate(227,256)"/>
<path d="M0 0 C2.12046792 3.53411321 2.53199289 6.94393835 3 11 C2.67 10.01 2.34 9.02 2 8 C1.46375 8.66 0.9275 9.32 0.375 10 C-2 12 -2 12 -5.25 12.25 C-6.1575 12.1675 -7.065 12.085 -8 12 C-8 11.67 -8 11.34 -8 11 C-6.35 11 -4.7 11 -3 11 C-2.86722656 10.28972656 -2.73445312 9.57945312 -2.59765625 8.84765625 C-2.42105469 7.92855469 -2.24445313 7.00945312 -2.0625 6.0625 C-1.88847656 5.14597656 -1.71445313 4.22945313 -1.53515625 3.28515625 C-1 1 -1 1 0 0 Z " fill="#74A48D" transform="translate(207,325)"/>
<path d="M0 0 C1.98 0.99 1.98 0.99 4 2 C3.91253716 3.43861294 3.80434652 4.87597508 3.6875 6.3125 C3.62949219 7.11300781 3.57148438 7.91351563 3.51171875 8.73828125 C3 11 3 11 0 14 C0 9.38 0 4.76 0 0 Z " fill="#478A6A" transform="translate(238,321)"/>
<path d="M0 0 C-4.84909149 3.4132566 -8.86290036 6 -15 6 C-17.59505121 4.56589275 -18.67977847 3.64044305 -20 1 C-18.68 1.33 -17.36 1.66 -16 2 C-16 2.66 -16 3.32 -16 4 C-15.01257813 3.62746094 -14.02515625 3.25492187 -13.0078125 2.87109375 C-11.71368887 2.39283067 -10.41940989 1.9149878 -9.125 1.4375 C-8.47402344 1.19064453 -7.82304687 0.94378906 -7.15234375 0.68945312 C-2.2265625 -1.11328125 -2.2265625 -1.11328125 0 0 Z " fill="#559D7B" transform="translate(223,289)"/>
<path d="M0 0 C0.66 0 1.32 0 2 0 C1.01 5.28 0.02 10.56 -1 16 C-1.99 16.33 -2.98 16.66 -4 17 C-3.63223832 10.69732561 -2.83374078 5.66748157 0 0 Z " fill="#175D3E" transform="translate(139,154)"/>
<path d="M0 0 C6.75 0.75 6.75 0.75 9 3 C7.906875 3.103125 6.81375 3.20625 5.6875 3.3125 C1.8265586 4.03233653 1.4969654 4.38953617 -1 7 C-3.6875 7.1875 -3.6875 7.1875 -6 7 C-4.71937515 5.2925002 -3.38232443 3.62626404 -2 2 C-1.34 2 -0.68 2 0 2 C0 1.34 0 0.68 0 0 Z " fill="#CBDED6" transform="translate(284,235)"/>
<path d="M0 0 C0 0.33 0 0.66 0 1 C-1.24716797 1.05607422 -1.24716797 1.05607422 -2.51953125 1.11328125 C-3.60621094 1.17902344 -4.69289062 1.24476563 -5.8125 1.3125 C-7.43091797 1.39951172 -7.43091797 1.39951172 -9.08203125 1.48828125 C-12.30710609 2.05385662 -12.86121906 2.71200178 -15 5 C-18.6875 4.6875 -18.6875 4.6875 -22 4 C-14.95594957 -0.69603362 -8.19209654 -1.45343648 0 0 Z " fill="#BCD8CA" transform="translate(246,272)"/>
<path d="M0 0 C1.65 0 3.3 0 5 0 C5 1.98 5 3.96 5 6 C3.35 6.33 1.7 6.66 0 7 C0 6.34 0 5.68 0 5 C-0.66 4.67 -1.32 4.34 -2 4 C-1.34 2.68 -0.68 1.36 0 0 Z " fill="#367557" transform="translate(378,337)"/>
<path d="M0 0 C1.65 0.33 3.3 0.66 5 1 C5 2.65 5 4.3 5 6 C3.02 6.33 1.04 6.66 -1 7 C-2 4 -2 4 -1.0625 1.8125 C-0.5365625 0.9153125 -0.5365625 0.9153125 0 0 Z " fill="#2B7852" transform="translate(258,215)"/>
<path d="M0 0 C0.53625 0.2475 1.0725 0.495 1.625 0.75 C-2.60970715 5.43046579 -7.33658898 7.21079719 -13.375 8.75 C-4.64893617 -0.4893617 -4.64893617 -0.4893617 0 0 Z " fill="#226B49" transform="translate(166.375,127.25)"/>
<path d="M0 0 C1.5 1.375 1.5 1.375 3 3 C3 3.66 3 4.32 3 5 C3.66 5 4.32 5 5 5 C7.1875 7.3125 7.1875 7.3125 9 10 C8.67 10.99 8.34 11.98 8 13 C3.125 8.375 3.125 8.375 2 5 C1.01 4.67 0.02 4.34 -1 4 C-0.67 2.68 -0.34 1.36 0 0 Z " fill="#407258" transform="translate(246,228)"/>
<path d="M0 0 C1.77119803 0.14133499 3.54195287 0.28823208 5.3125 0.4375 C6.29863281 0.51871094 7.28476562 0.59992188 8.30078125 0.68359375 C11 1 11 1 14 2 C14 2.66 14 3.32 14 4 C12.23050905 4.10815225 10.45912513 4.18566083 8.6875 4.25 C7.70136719 4.29640625 6.71523438 4.3428125 5.69921875 4.390625 C3 4 3 4 1.14453125 1.984375 C0.57798828 1.00210938 0.57798828 1.00210938 0 0 Z " fill="#7DB399" transform="translate(337,125)"/>
<path d="M0 0 C4.21878192 -0.19622241 7.17010894 0.19769832 11 2 C11 2.33 11 2.66 11 3 C2.75 3 -5.5 3 -14 3 C-14 2.67 -14 2.34 -14 2 C-9.38 1.67 -4.76 1.34 0 1 C0 0.67 0 0.34 0 0 Z " fill="#57A17B" transform="translate(331,125)"/>
<path d="M0 0 C5.61 0.66 11.22 1.32 17 2 C17 2.33 17 2.66 17 3 C9.41 3 1.82 3 -6 3 C-6 2.67 -6 2.34 -6 2 C-4.02 2 -2.04 2 0 2 C0 1.34 0 0.68 0 0 Z " fill="#2A7151" transform="translate(310,368)"/>
<path d="M0 0 C1.56454159 4.02014661 0.46223974 7.69925681 -0.4375 11.75 C-0.58509766 12.44738281 -0.73269531 13.14476562 -0.88476562 13.86328125 C-1.24868033 15.5772021 -1.62329068 17.28884581 -2 19 C-4 17 -4 17 -4.08203125 15.1171875 C-3.42627118 9.66202403 -2.12111483 5.07223113 0 0 Z " fill="#5CA483" transform="translate(136,157)"/>
<path d="M0 0 C0.33 0 0.66 0 1 0 C1.125 6.625 1.125 6.625 0 10 C-1.32 10 -2.64 10 -4 10 C-4.33 8.35 -4.66 6.7 -5 5 C-4.01 5 -3.02 5 -2 5 C-1.34 3.35 -0.68 1.7 0 0 Z " fill="#D9E9E1" transform="translate(204,326)"/>
<path d="M0 0 C1.65 0 3.3 0 5 0 C5.38218767 1.65614657 5.71395102 3.32457024 6 5 C5 6 5 6 2.4375 6.0625 C1.2309375 6.0315625 1.2309375 6.0315625 0 6 C0 4.02 0 2.04 0 0 Z " fill="#446A59" transform="translate(327,319)"/>
<path d="M0 0 C1.32 0.33 2.64 0.66 4 1 C4.05399736 2.45792884 4.09279177 3.91642712 4.125 5.375 C4.14820313 6.18710937 4.17140625 6.99921875 4.1953125 7.8359375 C4 10 4 10 2 12 C0.00214565 7.8794254 -0.17835515 4.54805635 0 0 Z " fill="#2D7451" transform="translate(300,315)"/>
<path d="M0 0 C0 0.66 0 1.32 0 2 C1.3921875 2.3403125 1.3921875 2.3403125 2.8125 2.6875 C6.51432143 4.21177941 7.45557765 5.36606505 9 9 C8.67 9.66 8.34 10.32 8 11 C7.55269531 10.61328125 7.10539062 10.2265625 6.64453125 9.828125 C3.1478974 6.81609925 -0.37407463 3.85678969 -4 1 C-2 0 -2 0 0 0 Z " fill="#6CA88D" transform="translate(303,167)"/>
<path d="M0 0 C0.66 0.33 1.32 0.66 2 1 C1.2884375 1.61875 1.2884375 1.61875 0.5625 2.25 C-1.15290139 3.87962522 -1.15290139 3.87962522 -1.4375 6.0625 C-2 8 -2 8 -3.9375 9.1875 C-4.618125 9.455625 -5.29875 9.72375 -6 10 C-6.99 10.495 -6.99 10.495 -8 11 C-8.33 10.01 -8.66 9.02 -9 8 C-6.03 5.36 -3.06 2.72 0 0 Z " fill="#497F64" transform="translate(241,180)"/>
<path d="M0 0 C-2.58779321 1.72519547 -4.60870336 2.72840852 -7.5 3.75 C-8.66015625 4.17539063 -8.66015625 4.17539063 -9.84375 4.609375 C-12 5 -12 5 -15 3 C-9.63560356 0.31780178 -5.98993047 -0.3152595 0 0 Z " fill="#82B9A0" transform="translate(174,123)"/>
<path d="M0 0 C-0.33 0.66 -0.66 1.32 -1 2 C-6.61 2 -12.22 2 -18 2 C-18 1.67 -18 1.34 -18 1 C-11.59233959 -0.83292414 -6.58723293 -1.04559253 0 0 Z " fill="#1B603D" transform="translate(269,370)"/>
<path d="M0 0 C0.66 0 1.32 0 2 0 C2 3.96 2 7.92 2 12 C2.66 12.33 3.32 12.66 4 13 C2.68 12.67 1.36 12.34 0 12 C0 9.69 0 7.38 0 5 C-0.99 5.495 -0.99 5.495 -2 6 C-1.34 4.02 -0.68 2.04 0 0 Z " fill="#47896A" transform="translate(220,324)"/>
<path d="M0 0 C1.32 0 2.64 0 4 0 C3.67 1.98 3.34 3.96 3 6 C4.32 6.33 5.64 6.66 7 7 C7 7.33 7 7.66 7 8 C4.69 8 2.38 8 0 8 C0 5.36 0 2.72 0 0 Z " fill="#559676" transform="translate(226,317)"/>
<path d="M0 0 C5.40647135 1.02122237 10.21940105 2.13164063 15 5 C15.33 5.66 15.66 6.32 16 7 C15.43152344 6.80664062 14.86304688 6.61328125 14.27734375 6.4140625 C9.54635062 4.81863577 4.81205575 3.33099414 0 2 C0 1.34 0 0.68 0 0 Z " fill="#396E55" transform="translate(277,173)"/>
<path d="M0 0 C0.33 0 0.66 0 1 0 C1 3.96 1 7.92 1 12 C0.01 12.495 0.01 12.495 -1 13 C-1.46523063 14.89533342 -1.46523063 14.89533342 -1.625 17.0625 C-1.74875 18.361875 -1.8725 19.66125 -2 21 C-2.33 21 -2.66 21 -3 21 C-3.44032071 13.48193151 -2.28612778 7.15775723 0 0 Z " fill="#6A9084" transform="translate(124,164)"/>
<path d="M0 0 C2.64 0 5.28 0 8 0 C6.13497412 2.62799102 4.69589209 3.86365751 1.5078125 4.48828125 C-0.9964272 4.72593573 -3.48653979 4.9040664 -6 5 C-5.36578125 4.87753906 -4.7315625 4.75507813 -4.078125 4.62890625 C-1.80283433 4.19303909 -1.80283433 4.19303909 -0.75 1.9375 C-0.5025 1.298125 -0.255 0.65875 0 0 Z " fill="#52876D" transform="translate(245,331)"/>
<path d="M0 0 C0.70189453 0.00451172 1.40378906 0.00902344 2.12695312 0.01367188 C3.85550538 0.02543073 5.58401365 0.04336546 7.3125 0.0625 C6.9825 1.0525 6.6525 2.0425 6.3125 3.0625 C5.46945312 3.02769531 4.62640625 2.99289062 3.7578125 2.95703125 C2.11425781 2.91642578 2.11425781 2.91642578 0.4375 2.875 C-0.65304687 2.84019531 -1.74359375 2.80539062 -2.8671875 2.76953125 C-4.26324219 2.91455078 -4.26324219 2.91455078 -5.6875 3.0625 C-6.6775 4.5475 -6.6775 4.5475 -7.6875 6.0625 C-7.81125 5.423125 -7.935 4.78375 -8.0625 4.125 C-8.371875 3.1040625 -8.371875 3.1040625 -8.6875 2.0625 C-9.3475 1.7325 -10.0075 1.4025 -10.6875 1.0625 C-7.06882441 -0.1437252 -3.76243749 -0.04566918 0 0 Z " fill="#286C4B" transform="translate(328.6875,312.9375)"/>
<path d="M0 0 C0.66 0 1.32 0 2 0 C2.25028811 1.58013217 2.47440946 3.16442306 2.6875 4.75 C2.87892578 6.07257813 2.87892578 6.07257813 3.07421875 7.421875 C3 10 3 10 0 14 C0 9.38 0 4.76 0 0 Z " fill="#255A4A" transform="translate(121,253)"/>
<path d="M0 0 C2.04219706 1.69179328 2.91793306 2.63727666 3.51171875 5.26171875 C3.56972656 6.06222656 3.62773437 6.86273438 3.6875 7.6875 C3.75324219 8.49574219 3.81898438 9.30398437 3.88671875 10.13671875 C3.92410156 10.75160156 3.96148437 11.36648437 4 12 C1 11 1 11 -0.25 8.8125 C-1.12860506 5.51773102 -0.76557916 3.29199038 0 0 Z " fill="#3D7C5F" transform="translate(315,205)"/>
<path d="M0 0 C2.125 0.375 2.125 0.375 4 1 C-1.13887901 4.32515701 -5.80154611 6.36461493 -12 6 C-12.33 5.34 -12.66 4.68 -13 4 C-11.84371094 3.81824219 -11.84371094 3.81824219 -10.6640625 3.6328125 C-9.66117187 3.46523438 -8.65828125 3.29765625 -7.625 3.125 C-6.12839844 2.88136719 -6.12839844 2.88136719 -4.6015625 2.6328125 C-1.8574885 2.2041198 -1.8574885 2.2041198 0 0 Z " fill="#78A58F" transform="translate(356,364)"/>
<path d="M0 0 C2.64 0 5.28 0 8 0 C8.33 1.32 8.66 2.64 9 4 C8.0925 3.814375 7.185 3.62875 6.25 3.4375 C3.31685676 3.04265379 1.7355343 3.05308428 -1 4 C-0.67 2.68 -0.34 1.36 0 0 Z " fill="#2E6449" transform="translate(292,331)"/>
<path d="M0 0 C1.24546405 2.49092811 0.7767578 3.41080733 0 6 C-0.66 6 -1.32 6 -2 6 C-2 5.01 -2 4.02 -2 3 C-2.66 3 -3.32 3 -4 3 C-4 3.66 -4 4.32 -4 5 C-5.98 5.99 -5.98 5.99 -8 7 C-8 5.35 -8 3.7 -8 2 C-5.36 1.34 -2.72 0.68 0 0 Z " fill="#286547" transform="translate(336,327)"/>
<path d="M0 0 C1.32 0 2.64 0 4 0 C3.01 3.3 2.02 6.6 1 10 C0.34 10 -0.32 10 -1 10 C-0.67 6.7 -0.34 3.4 0 0 Z " fill="#D9EEE0" transform="translate(216,318)"/>
<path d="M0 0 C0.66 0.66 1.32 1.32 2 2 C1.34 3.65 0.68 5.3 0 7 C-3.65316671 5.75023244 -4.78065836 5.32901247 -7 2 C-6.030625 1.855625 -5.06125 1.71125 -4.0625 1.5625 C-1.13513227 1.32437659 -1.13513227 1.32437659 0 0 Z " fill="#438364" transform="translate(276,233)"/>
<path d="M0 0 C3.3 0.99 6.6 1.98 10 3 C10 3.66 10 4.32 10 5 C8.56163249 4.88541307 7.12429034 4.75790884 5.6875 4.625 C4.88699219 4.55539062 4.08648437 4.48578125 3.26171875 4.4140625 C1 4 1 4 -2 2 C-1.34 1.34 -0.68 0.68 0 0 Z " fill="#7AAA91" transform="translate(168,370)"/>
<path d="M0 0 C0.33 0 0.66 0 1 0 C1.33266291 6.20970773 0.45029331 10.28264895 -2 16 C-2.33 16 -2.66 16 -3 16 C-3.14285714 8.57142857 -3.14285714 8.57142857 -2 5 C-1.34 5 -0.68 5 0 5 C0 3.35 0 1.7 0 0 Z " fill="#72A08A" transform="translate(387,323)"/>
<path d="M0 0 C1.98 0 3.96 0 6 0 C5.67 1.65 5.34 3.3 5 5 C3.35 5 1.7 5 0 5 C0 3.35 0 1.7 0 0 Z " fill="#386654" transform="translate(311,320)"/>
<path d="M0 0 C3.3 0.33 6.6 0.66 10 1 C9.67 2.32 9.34 3.64 9 5 C6.69 4.67 4.38 4.34 2 4 C2.66 3.67 3.32 3.34 4 3 C4 2.34 4 1.68 4 1 C2.68 0.67 1.36 0.34 0 0 Z " fill="#A1BFAF" transform="translate(276,316)"/>
<path d="M0 0 C0.99 0.99 1.98 1.98 3 3 C2.34 4.98 1.68 6.96 1 9 C0.01 9 -0.98 9 -2 9 C-2.66 10.65 -3.32 12.3 -4 14 C-4.33 12.68 -4.66 11.36 -5 10 C-4.34 10 -3.68 10 -3 10 C-1.11608215 6.73454239 -0.50712033 3.71888239 0 0 Z " fill="#407A5D" transform="translate(260,206)"/>
<path d="M0 0 C0.33 0.66 0.66 1.32 1 2 C0.109375 4.56640625 0.109375 4.56640625 -1.25 7.5625 C-1.68828125 8.55378906 -2.1265625 9.54507813 -2.578125 10.56640625 C-4 13 -4 13 -7 14 C-5.53967505 8.68972746 -3.01679014 4.53669968 0 0 Z " fill="#B4C9BE" transform="translate(217,188)"/>
<path d="M0 0 C0.33 0.66 0.66 1.32 1 2 C3.58605332 2.4683265 3.58605332 2.4683265 6.5625 2.625 C8.08037109 2.73714844 8.08037109 2.73714844 9.62890625 2.8515625 C10.80259766 2.92503906 10.80259766 2.92503906 12 3 C12 3.33 12 3.66 12 4 C6.39 4 0.78 4 -5 4 C-5.33 3.01 -5.66 2.02 -6 1 C-4.7934375 1.0309375 -4.7934375 1.0309375 -3.5625 1.0625 C-1.06645115 1.29633621 -1.06645115 1.29633621 0 0 Z " fill="#2C6F4D" transform="translate(273,368)"/>
<path d="M0 0 C3.63 0 7.26 0 11 0 C11 0.66 11 1.32 11 2 C10.31292969 2.04898437 9.62585938 2.09796875 8.91796875 2.1484375 C7.56638672 2.26058594 7.56638672 2.26058594 6.1875 2.375 C5.29417969 2.44460938 4.40085938 2.51421875 3.48046875 2.5859375 C0.75601501 2.86645036 0.75601501 2.86645036 -2 5 C-1.34 3.35 -0.68 1.7 0 0 Z " fill="#4FA17C" transform="translate(215,315)"/>
<path d="M0 0 C0.66 0.33 1.32 0.66 2 1 C2 1.66 2 2.32 2 3 C2.66 3 3.32 3 4 3 C4.66 4.98 5.32 6.96 6 9 C5.01 9.495 5.01 9.495 4 10 C4 9.34 4 8.68 4 8 C3.01 8 2.02 8 1 8 C-1.125 3.375 -1.125 3.375 0 0 Z " fill="#438161" transform="translate(306,189)"/>
<path d="M0 0 C0.33 1.32 0.66 2.64 1 4 C1.66 5.32 2.32 6.64 3 8 C0.03 8 -2.94 8 -6 8 C-4.02 5.36 -2.04 2.72 0 0 Z " fill="#C3D2CC" transform="translate(224,179)"/>
<path d="M0 0 C0.66 0.33 1.32 0.66 2 1 C-1.3621637 4.65882521 -4.36050852 7.14420341 -9 9 C-9.66 8.67 -10.32 8.34 -11 8 C-7.37 5.36 -3.74 2.72 0 0 Z " fill="#76978F" transform="translate(151,130)"/>
<path d="M0 0 C2.97 0 5.94 0 9 0 C9 0.66 9 1.32 9 2 C10.98 1.67 12.96 1.34 15 1 C13 3 13 3 10.46875 3.23046875 C8.99921875 3.20919922 8.99921875 3.20919922 7.5 3.1875 C6.03046875 3.17783203 6.03046875 3.17783203 4.53125 3.16796875 C2 3 2 3 0 2 C0 1.34 0 0.68 0 0 Z " fill="#1D6444" transform="translate(291,368)"/>
<path d="M0 0 C2.64 0.33 5.28 0.66 8 1 C7.01 1.66 6.02 2.32 5 3 C6.65 3.33 8.3 3.66 10 4 C10 4.33 10 4.66 10 5 C3.9453125 5.1953125 3.9453125 5.1953125 2 5 C1.34 4.34 0.68 3.68 0 3 C0 2.01 0 1.02 0 0 Z " fill="#AFCABB" transform="translate(273,330)"/>
<path d="M0 0 C0.66 0.33 1.32 0.66 2 1 C2.04254356 2.99954746 2.04080783 5.00041636 2 7 C1 8 1 8 -2.0625 8.0625 C-3.031875 8.041875 -4.00125 8.02125 -5 8 C-5.33 7.34 -5.66 6.68 -6 6 C-4.02 5.67 -2.04 5.34 0 5 C0 3.35 0 1.7 0 0 Z " fill="#D9E8DE" transform="translate(283,326)"/>
<path d="M0 0 C1.89213369 2.38573379 3.02391783 4.07175348 4 7 C2.1875 8.5625 2.1875 8.5625 0 10 C-0.99 9.67 -1.98 9.34 -3 9 C-2.34 8.34 -1.68 7.68 -1 7 C-0.59952556 4.67724823 -0.2602896 2.34260643 0 0 Z " fill="#387253" transform="translate(337,318)"/>
<path d="M0 0 C0.33 0.99 0.66 1.98 1 3 C1.66 3 2.32 3 3 3 C3.33 6.63 3.66 10.26 4 14 C3.34 13.67 2.68 13.34 2 13 C0.66649933 8.55499776 -0.29175731 4.6681169 0 0 Z " fill="#529D7E" transform="translate(132,317)"/>
<path d="M0 0 C0.66 0.66 1.32 1.32 2 2 C0.625 3.5 0.625 3.5 -1 5 C-1.66 5 -2.32 5 -3 5 C-3 4.34 -3 3.68 -3 3 C-4.98 3.33 -6.96 3.66 -9 4 C-8.67 3.01 -8.34 2.02 -8 1 C-6.865625 1.020625 -5.73125 1.04125 -4.5625 1.0625 C-1.18424326 1.41577477 -1.18424326 1.41577477 0 0 Z " fill="#2B5E45" transform="translate(286,319)"/>
<path d="M0 0 C0.33 0.99 0.66 1.98 1 3 C-1.42308573 6.7278242 -3.97699853 9.09436773 -8 11 C-8.66 10.67 -9.32 10.34 -10 10 C-8.625 8.5 -8.625 8.5 -7 7 C-6.34 7 -5.68 7 -5 7 C-4.731875 6.401875 -4.46375 5.80375 -4.1875 5.1875 C-3.01506533 3.02775192 -1.80630718 1.64209744 0 0 Z " fill="#588971" transform="translate(320,265)"/>
<path d="M0 0 C1 3 1 3 -0.4375 6.1875 C-1.2109375 7.5796875 -1.2109375 7.5796875 -2 9 C-2.99 9 -3.98 9 -5 9 C-4.67 8.34 -4.34 7.68 -4 7 C-4.99 6.67 -5.98 6.34 -7 6 C-4.69 4.02 -2.38 2.04 0 0 Z " fill="#CFD8D2" transform="translate(307,262)"/>
<path d="M0 0 C0.33 0.66 0.66 1.32 1 2 C-2.31394153 3.10464718 -2.80057661 2.82254679 -6 2 C-8.08234592 1.93256652 -10.16668557 1.91485528 -12.25 1.9375 C-13.32765625 1.94652344 -14.4053125 1.95554688 -15.515625 1.96484375 C-16.74539063 1.98224609 -16.74539063 1.98224609 -18 2 C-18 1.67 -18 1.34 -18 1 C-11.97403427 -0.0712828 -6.11090483 -0.09945415 0 0 Z " fill="#DCEAE2" transform="translate(274,161)"/>
<path d="M0 0 C2.49361571 1.20381448 4.68143083 2.45428722 7 4 C7 4.66 7 5.32 7 6 C8.32 6.66 9.64 7.32 11 8 C10.01 8.33 9.02 8.66 8 9 C8 8.34 8 7.68 8 7 C7.13375 6.938125 7.13375 6.938125 6.25 6.875 C2.86687535 5.55934042 1.80777315 3.03447636 0 0 Z " fill="#466E6A" transform="translate(132,347)"/>
<path d="M0 0 C0.66 0.33 1.32 0.66 2 1 C2.25 6.625 2.25 6.625 0 10 C-3.125 10.1875 -3.125 10.1875 -6 10 C-5.67 9.34 -5.34 8.68 -5 8 C-2.4375 7.375 -2.4375 7.375 0 7 C0 4.69 0 2.38 0 0 Z " fill="#CDE2D5" transform="translate(319,318)"/>
<path d="M0 0 C0.66 0.33 1.32 0.66 2 1 C1.44687265 5.02992782 0.8441938 9.02022924 0 13 C-2.1519437 9.77208445 -2.20086443 8.71599191 -2 5 C-1.34 5 -0.68 5 0 5 C0 3.35 0 1.7 0 0 Z " fill="#4E846C" transform="translate(214,257)"/>
<path d="M0 0 C-0.33 0.99 -0.66 1.98 -1 3 C-3.5625 4.1875 -3.5625 4.1875 -6 5 C-6.99 4.01 -7.98 3.02 -9 2 C-5.86501708 0.14223235 -3.62528568 -0.20140476 0 0 Z " fill="#5E957D" transform="translate(162,127)"/>
<path d="M0 0 C2.15377564 2.62198774 3.40072174 4.64404172 4 8 C2.02 8.99 2.02 8.99 0 10 C-1.125 3.375 -1.125 3.375 0 0 Z " fill="#1D6849" transform="translate(141,338)"/>
<path d="M0 0 C0.33 0.99 0.66 1.98 1 3 C3.31 3 5.62 3 8 3 C8 3.66 8 4.32 8 5 C4.7 5 1.4 5 -2 5 C-2 4.01 -2 3.02 -2 2 C-1.34 2 -0.68 2 0 2 C0 1.34 0 0.68 0 0 Z " fill="#DAE6DD" transform="translate(292,325)"/>
<path d="M0 0 C-3.25179812 2.21713508 -6.4213696 4.34832443 -10 6 C-10.99 5.01 -11.98 4.02 -13 3 C-11.21189234 2.30329584 -9.41937948 1.61788811 -7.625 0.9375 C-6.62726563 0.55464844 -5.62953125 0.17179687 -4.6015625 -0.22265625 C-2 -1 -2 -1 0 0 Z " fill="#BCD4C8" transform="translate(294,274)"/>
<path d="M0 0 C3.76024616 2.50683077 4.39192086 4.86493934 6 9 C4.68 9 3.36 9 2 9 C0.4375 6.1875 0.4375 6.1875 -1 3 C-0.67 2.01 -0.34 1.02 0 0 Z " fill="#40775D" transform="translate(240,219)"/>
<path d="M0 0 C0.33 0 0.66 0 1 0 C1.66 2.31 2.32 4.62 3 7 C2.67 7.33 2.34 7.66 2 8 C1.76518307 10.18292774 1.58636677 12.37203174 1.4375 14.5625 C1.35371094 15.76003906 1.26992188 16.95757812 1.18359375 18.19140625 C1.12300781 19.11824219 1.06242187 20.04507813 1 21 C0.67 21 0.34 21 0 21 C0 14.07 0 7.14 0 0 Z " fill="#68A589" transform="translate(332,211)"/>
<path d="M0 0 C5.08441876 3.64751781 6.79444959 5.85169289 8 12 C4.74451247 8.97704729 2.31022942 5.79537691 0 2 C0 1.34 0 0.68 0 0 Z " fill="#4FA380" transform="translate(144,342)"/>
<path d="M0 0 C0.82638376 2.89234315 1 4.88742431 1 8 C-0.32 8.33 -1.64 8.66 -3 9 C-3.75 7.3125 -3.75 7.3125 -4 5 C-2.0625 2.25 -2.0625 2.25 0 0 Z " fill="#286E4C" transform="translate(271,327)"/>
<path d="M0 0 C1.65 0 3.3 0 5 0 C5 1.98 5 3.96 5 6 C4.01 6.33 3.02 6.66 2 7 C2 6.34 2 5.68 2 5 C1.34 4.67 0.68 4.34 0 4 C0 2.68 0 1.36 0 0 Z M2 2 C3 5 3 5 3 5 Z " fill="#2D7252" transform="translate(256,321)"/>
<path d="M0 0 C1.65 0 3.3 0 5 0 C4.34 1.32 3.68 2.64 3 4 C1.68 4 0.36 4 -1 4 C-1.33 4.66 -1.66 5.32 -2 6 C-2 4.68 -2 3.36 -2 2 C-1.34 2 -0.68 2 0 2 C0 1.34 0 0.68 0 0 Z " fill="#2F7251" transform="translate(228,170)"/>
<path d="M0 0 C0.66 0 1.32 0 2 0 C2 0.66 2 1.32 2 2 C1.34 2 0.68 2 0 2 C-0.66 3.98 -1.32 5.96 -2 8 C-2.66 8 -3.32 8 -4 8 C-4 7.34 -4 6.68 -4 6 C-3.34 6 -2.68 6 -2 6 C-2 5.34 -2 4.68 -2 4 C-3.65 4.66 -5.3 5.32 -7 6 C-7 5.34 -7 4.68 -7 4 C-6.030625 3.525625 -5.06125 3.05125 -4.0625 2.5625 C-1.19522563 1.29806053 -1.19522563 1.29806053 0 0 Z " fill="#26614C" transform="translate(149,134)"/>
<path d="M0 0 C2.97 0.495 2.97 0.495 6 1 C5.38125 1.28875 4.7625 1.5775 4.125 1.875 C1.86674235 2.93720042 1.86674235 2.93720042 0 5 C-2.625 5.125 -2.625 5.125 -5 5 C-4.01 4.67 -3.02 4.34 -2 4 C-0.79117904 1.99983534 -0.79117904 1.99983534 0 0 Z " fill="#256847" transform="translate(354,362)"/>
<path d="M0 0 C0.99 0.33 1.98 0.66 3 1 C2.34 2.65 1.68 4.3 1 6 C0.34 6 -0.32 6 -1 6 C-1 6.66 -1 7.32 -1 8 C-1.66 8 -2.32 8 -3 8 C-3 6.68 -3 5.36 -3 4 C-2.34 3.67 -1.68 3.34 -1 3 C-0.67 2.01 -0.34 1.02 0 0 Z " fill="#588C73" transform="translate(373,349)"/>
<path d="M0 0 C1.32 0.33 2.64 0.66 4 1 C4.33 2.65 4.66 4.3 5 6 C3.68 6 2.36 6 1 6 C0.67 4.02 0.34 2.04 0 0 Z " fill="#C1D3C9" transform="translate(300,328)"/>
<path d="M0 0 C2.475 0.495 2.475 0.495 5 1 C4.34 3.31 3.68 5.62 3 8 C0.4345406 5.4345406 0.45953913 3.52313332 0 0 Z " fill="#73AB93" transform="translate(199,322)"/>
<path d="M0 0 C0.66 0 1.32 0 2 0 C1.44271087 3.34373475 0.64826111 6.03312999 -1 9 C-1.66 9 -2.32 9 -3 9 C-2.5020163 5.26512223 -2.12508244 3.18762365 0 0 Z " fill="#2E694D" transform="translate(313,248)"/>
<path d="M0 0 C0.33 0 0.66 0 1 0 C1.13277344 0.71027344 1.26554688 1.42054688 1.40234375 2.15234375 C1.57894531 3.07144531 1.75554687 3.99054688 1.9375 4.9375 C2.11152344 5.85402344 2.28554687 6.77054688 2.46484375 7.71484375 C2.77714988 9.95289844 2.77714988 9.95289844 4 11 C4.04063832 12.66617115 4.042721 14.33388095 4 16 C0.9005971 12.09205721 -0.13464242 9.29032666 -0.0625 4.3125 C-0.05347656 3.50425781 -0.04445312 2.69601563 -0.03515625 1.86328125 C-0.02355469 1.24839844 -0.01195312 0.63351563 0 0 Z " fill="#9FBDAE" transform="translate(238,204)"/>
<path d="M0 0 C2.52588702 2.36292656 3.88820837 3.66462511 5 7 C5.66 7.33 6.32 7.66 7 8 C7 8.66 7 9.32 7 10 C4.13904359 8.7175023 1.88634082 7.54656011 0 5 C-0.1875 2.3125 -0.1875 2.3125 0 0 Z " fill="#438465" transform="translate(297,181)"/>
<path d="M0 0 C2.88437779 1.29299694 4.87219421 2.65941363 7 5 C6.67 5.66 6.34 6.32 6 7 C4.68 6.67 3.36 6.34 2 6 C2 4.68 2 3.36 2 2 C1.34 2 0.68 2 0 2 C0 1.34 0 0.68 0 0 Z " fill="#266A50" transform="translate(153,360)"/>
<path d="M0 0 C0.66 0 1.32 0 2 0 C1.49701212 4.40114397 -0.08772731 6.71195019 -3 10 C-3.33 9.34 -3.66 8.68 -4 8 C-3.22265625 6.0546875 -3.22265625 6.0546875 -2.0625 3.875 C-1.49208984 2.78832031 -1.49208984 2.78832031 -0.91015625 1.6796875 C-0.60980469 1.12539062 -0.30945313 0.57109375 0 0 Z " fill="#2B7355" transform="translate(140,148)"/>
<path d="M0 0 C0.99 0 1.98 0 3 0 C2.01 2.97 1.02 5.94 0 9 C-0.66 8.01 -1.32 7.02 -2 6 C-1.125 2.8125 -1.125 2.8125 0 0 Z " fill="#559877" transform="translate(243,319)"/>
<path d="M0 0 C1.32 0.33 2.64 0.66 4 1 C3.67 2.32 3.34 3.64 3 5 C3 4.34 3 3.68 3 3 C2.54625 3.495 2.0925 3.99 1.625 4.5 C0 6 0 6 -2 6 C-1.49396008 3.83125748 -1.00016187 2.00032373 0 0 Z " fill="#E1E9E1" transform="translate(295,318)"/>
<path d="M0 0 C0.99 0.33 1.98 0.66 3 1 C2.67 4.3 2.34 7.6 2 11 C1.34 10.67 0.68 10.34 0 10 C0 6.7 0 3.4 0 0 Z " fill="#235546" transform="translate(121,287)"/>
<path d="M0 0 C0.66 0.33 1.32 0.66 2 1 C-2.625 5.875 -2.625 5.875 -6 7 C-5.8125 5.1875 -5.8125 5.1875 -5 3 C-2.5625 1.1875 -2.5625 1.1875 0 0 Z " fill="#326E52" transform="translate(314,273)"/>
<path d="M0 0 C0.66 1.32 1.32 2.64 2 4 C1.34 4 0.68 4 0 4 C-0.66 5.32 -1.32 6.64 -2 8 C-3.32 7.67 -4.64 7.34 -6 7 C-4.625 5.5 -4.625 5.5 -3 4 C-2.34 4 -1.68 4 -1 4 C-0.67 2.68 -0.34 1.36 0 0 Z " fill="#447F63" transform="translate(282,233)"/>
<path d="M0 0 C-1.65 1.65 -3.3 3.3 -5 5 C-5.66 4.67 -6.32 4.34 -7 4 C-7 3.34 -7 2.68 -7 2 C-7.66 1.67 -8.32 1.34 -9 1 C-6.04335481 -0.4783226 -3.25770263 -0.06032783 0 0 Z " fill="#CDDAD3" transform="translate(243,179)"/>
<path d="M0 0 C0 1.65 0 3.3 0 5 C-3.75 6.125 -3.75 6.125 -6 5 C-6 4.34 -6 3.68 -6 3 C-1.5 0 -1.5 0 0 0 Z " fill="#3C775C" transform="translate(364,358)"/>
<path d="M0 0 C0.33 0.66 0.66 1.32 1 2 C3.52733235 2.65555119 3.52733235 2.65555119 6 3 C4.8125 4.5625 4.8125 4.5625 3 6 C0.3125 5.6875 0.3125 5.6875 -2 5 C-1.34 4.67 -0.68 4.34 0 4 C0 2.68 0 1.36 0 0 Z " fill="#B3CDBF" transform="translate(276,321)"/>
<path d="M0 0 C1.64350079 3.28700157 2.41321669 5.47930015 3 9 C1.68 9 0.36 9 -1 9 C-0.67 6.03 -0.34 3.06 0 0 Z " fill="#C6DACE" transform="translate(209,320)"/>
<path d="M0 0 C-2.40820361 2.40820361 -3.65022937 2.68097423 -7 3 C-9.3125 2.0625 -9.3125 2.0625 -11 1 C-6.92630576 -1.03684712 -4.41062136 -1.0257259 0 0 Z " fill="#CDD8D2" transform="translate(299,283)"/>
<path d="M0 0 C1.32 0.66 2.64 1.32 4 2 C3.67 3.32 3.34 4.64 3 6 C1.35 5.01 -0.3 4.02 -2 3 C-1.34 2.67 -0.68 2.34 0 2 C0 1.34 0 0.68 0 0 Z " fill="#8CCEB0" transform="translate(358,131)"/>
<path d="M0 0 C0.185625 0.9590625 0.185625 0.9590625 0.375 1.9375 C0.684375 2.9584375 0.684375 2.9584375 1 4 C1.66 4.33 2.32 4.66 3 5 C2.67 6.65 2.34 8.3 2 10 C0 8.625 0 8.625 -2 7 C-2 6.34 -2 5.68 -2 5 C-1.34 5 -0.68 5 0 5 C0 3.35 0 1.7 0 0 Z " fill="#C3D7CC" transform="translate(214,324)"/>
<path d="M0 0 C2.0625 0.4375 2.0625 0.4375 4 1 C3.42655063 3.86724686 3.1385485 4.8614515 1 7 C0.34 5.02 -0.32 3.04 -1 1 C-0.67 0.67 -0.34 0.34 0 0 Z " fill="#30674E" transform="translate(286,324)"/>
<path d="M0 0 C2.00720923 0.28674418 4.0085944 0.61866701 6 1 C5.67 1.66 5.34 2.32 5 3 C2.67843403 3.40729228 0.3431213 3.74438677 -2 4 C-1 1 -1 1 0 0 Z " fill="#256D49" transform="translate(306,312)"/>
<path d="M0 0 C2.67927341 4.01891012 2.15601248 6.24161923 2 11 C1.67 10.34 1.34 9.68 1 9 C0.34 9 -0.32 9 -1 9 C-0.67 6.03 -0.34 3.06 0 0 Z " fill="#377857" transform="translate(205,231)"/>
<path d="M0 0 C2.375 0.6875 2.375 0.6875 5 2 C6.3125 4.625 6.3125 4.625 7 7 C6.01 6.67 5.02 6.34 4 6 C4 5.34 4 4.68 4 4 C3.01 3.67 2.02 3.34 1 3 C0.67 2.01 0.34 1.02 0 0 Z " fill="#396F53" transform="translate(300,185)"/>
<path d="M0 0 C0.33 0.66 0.66 1.32 1 2 C1.66 2 2.32 2 3 2 C3.33 2.99 3.66 3.98 4 5 C0 5 0 5 -2 4 C-1.34 2.68 -0.68 1.36 0 0 Z " fill="#E2E8E5" transform="translate(233,179)"/>
<path d="M0 0 C-0.33 0.99 -0.66 1.98 -1 3 C-1.99 3 -2.98 3 -4 3 C-4.33 3.99 -4.66 4.98 -5 6 C-6.32 5.67 -7.64 5.34 -9 5 C-7.87926138 4.16094435 -6.75325453 3.32892169 -5.625 2.5 C-4.99851563 2.0359375 -4.37203125 1.571875 -3.7265625 1.09375 C-2 0 -2 0 0 0 Z " fill="#BED7CA" transform="translate(240,168)"/>
<path d="M0 0 C1.0625 1.875 1.0625 1.875 2 4 C1.67 4.66 1.34 5.32 1 6 C0.01 6 -0.98 6 -2 6 C-2 6.99 -2 7.98 -2 9 C-2.66 9 -3.32 9 -4 9 C-2.80100302 5.9168649 -1.52299523 2.93720508 0 0 Z " fill="#5E867A" transform="translate(131,149)"/>
<path d="M0 0 C0.66 0 1.32 0 2 0 C2.33 1.98 2.66 3.96 3 6 C1.35 6.33 -0.3 6.66 -2 7 C-2 6.01 -2 5.02 -2 4 C-1.01 4 -0.02 4 1 4 C0.67 2.68 0.34 1.36 0 0 Z " fill="#1A6241" transform="translate(320,329)"/>
<path d="M0 0 C1.98 0 3.96 0 6 0 C3.375 3.875 3.375 3.875 0 5 C0 3.35 0 1.7 0 0 Z " fill="#286849" transform="translate(312,329)"/>
<path d="M0 0 C1.65 0 3.3 0 5 0 C5.33 0.99 5.66 1.98 6 3 C4.02 3 2.04 3 0 3 C0 2.01 0 1.02 0 0 Z " fill="#32604B" transform="translate(276,328)"/>
<path d="M0 0 C2.64 0 5.28 0 8 0 C5.23776722 2.76223278 2.79293383 2.57856291 -1 3 C-0.67 2.01 -0.34 1.02 0 0 Z " fill="#326E51" transform="translate(285,288)"/>
<path d="M0 0 C0.33 0 0.66 0 1 0 C0.53199289 4.05606165 0.12046792 7.46588679 -2 11 C-2.25 3.375 -2.25 3.375 0 0 Z " fill="#C0D9CB" transform="translate(330,238)"/>
<path d="M0 0 C2.875 -0.125 2.875 -0.125 6 0 C8 2 8 2 8 4 C4.64404172 3.40072174 2.62198774 2.15377564 0 0 Z " fill="#538A71" transform="translate(289,235)"/>
<path d="M0 0 C1.5 1.375 1.5 1.375 3 3 C3 3.66 3 4.32 3 5 C3.66 5 4.32 5 5 5 C4.67 5.66 4.34 6.32 4 7 C3.34 7 2.68 7 2 7 C2 6.34 2 5.68 2 5 C1.01 4.67 0.02 4.34 -1 4 C-0.67 2.68 -0.34 1.36 0 0 Z " fill="#4B7C64" transform="translate(246,228)"/>
<path d="M0 0 C1.32 0 2.64 0 4 0 C4 0.66 4 1.32 4 2 C4.99 1.67 5.98 1.34 7 1 C7 2.32 7 3.64 7 5 C4.11562221 3.70700306 2.12780579 2.34058637 0 0 Z " fill="#60857D" transform="translate(144,360)"/>
<path d="M0 0 C0.12375 0.639375 0.2475 1.27875 0.375 1.9375 C0.684375 2.9584375 0.684375 2.9584375 1 4 C1.66 4.33 2.32 4.66 3 5 C-0.4352048 7.29013653 -1.985331 7.17842973 -6 7 C-6 6.67 -6 6.34 -6 6 C-4.35 6 -2.7 6 -1 6 C-0.67 4.02 -0.34 2.04 0 0 Z " fill="#6FB192" transform="translate(205,330)"/>
<path d="M0 0 C3 3.75 3 3.75 3 6 C1.35 5.67 -0.3 5.34 -2 5 C-2 4.34 -2 3.68 -2 3 C-1.34 3 -0.68 3 0 3 C0 2.01 0 1.02 0 0 Z " fill="#B6D5C5" transform="translate(255,329)"/>
<path d="M0 0 C0.99 0.33 1.98 0.66 3 1 C2.34 2.65 1.68 4.3 1 6 C0.34 6 -0.32 6 -1 6 C-1.33 6.66 -1.66 7.32 -2 8 C-1.125 2.25 -1.125 2.25 0 0 Z " fill="#B5D0C3" transform="translate(322,257)"/>
<path d="M0 0 C0.66 0 1.32 0 2 0 C2.33 1.32 2.66 2.64 3 4 C0.69 4.33 -1.62 4.66 -4 5 C-2.71937515 3.2925002 -1.38232443 1.62626404 0 0 Z " fill="#B8CFC5" transform="translate(282,237)"/>
<path d="M0 0 C-2.93720508 1.52299523 -5.9168649 2.80100302 -9 4 C-9.33 3.34 -9.66 2.68 -10 2 C-6.5980513 -0.09350689 -3.94727588 -0.17942163 0 0 Z " fill="#A5C8B7" transform="translate(253,194)"/>
<path d="M0 0 C3 1 3 1 4.6875 4.0625 C5.120625 5.031875 5.55375 6.00125 6 7 C5.01 7.495 5.01 7.495 4 8 C0 2.25 0 2.25 0 0 Z " fill="#95C4B0" transform="translate(376,147)"/>
<path d="M0 0 C0.763125 0.20625 1.52625 0.4125 2.3125 0.625 C1.9825 1.615 1.6525 2.605 1.3125 3.625 C-0.9975 2.965 -3.3075 2.305 -5.6875 1.625 C-2.6875 -0.375 -2.6875 -0.375 0 0 Z " fill="#86BBA2" transform="translate(353.6875,128.375)"/>
</svg>
